<svg xmlns="http://www.w3.org/2000/svg" viewBox="963.045 1773.5 326.457 323.062"><defs><style>.a{fill:#a5834e;}.b{fill:#6d5333;}.c{fill:#896742;}.d{fill:#e8d0ba;}.e{fill:#b7a597;}.f{fill:#e2e2e2;}.g{fill:#398d00;}</style></defs><g transform="translate(963.045 1773.5)"><path class="a" d="M139.748,0,280.062,80.907,139.748,161.814,0,80.907"/><line class="a" y1="80.907" x2="139.748"/><path class="a" d="M139.748,0,280.062,80.907,139.748,161.814,0,80.907"/><line class="a" y1="80.907" x2="139.748"/><path class="b" d="M0,176.114l139.748,80.341V95.207L0,14.3" transform="translate(0 66.607)"/><path class="c" d="M24.7,256.455l140.314-80.341V14.3L24.7,95.207Z" transform="translate(115.048 66.607)"/><path class="d" d="M55.16,4.8,8.2,31.392,148.514,112.3l46.394-27.158L55.16,4.8" transform="translate(38.194 22.358)"/><path class="e" d="M33,46.158V99.907L79.394,73.315V19Z" transform="translate(153.708 88.499)"/><path class="e" d="M5.6,27.2V80.949l69.591,40.736V67.371Z" transform="translate(26.084 126.693)"/><path class="f" d="M7.2,50.071,55.857,77.794V59.123L7.2,31.4Z" transform="translate(33.536 146.256)"/><g transform="translate(214.432 186.708)"><circle class="f" cx="56.013" cy="56.013" r="56.013"/><path class="g" d="M41.8,67.821l24.894,25.46,46.96-46.394L105.168,38.4,67.26,76.873,50.287,59.9Z" transform="translate(-19.734 -7.848)"/></g></g></svg>