<svg xmlns="http://www.w3.org/2000/svg" viewBox="1063.942 1118.4 508.341 600.653"><defs><style>.a{fill:#a7a9ac;}.b{fill:#808285;}.c{fill:#f2ffeb;}.d{fill:#58595b;}.e{fill:#414042;}.f{fill:#d1d3d4;}.g{fill:#231f20;}.h{fill:#a6d069;}.i{fill:#939598;}.j{fill:#e6e7e8;}.k{fill:#6d6e71;}</style></defs><g transform="translate(1063.992 1118.439)"><g transform="translate(78.464 -0.039)"><path class="a" d="M36.282,131.727,167.447,58.335a22.968,22.968,0,0,1,21.553,0l80.054,44.751c6.158,3.58,6.158,8.354,0,11.934L138.5,188.412a22.968,22.968,0,0,1-21.553,0L36.282,143.661C30.739,140.677,30.739,135.307,36.282,131.727Z" transform="translate(87.494 276.639)"/><path class="a" d="M13.2,13.919,37.216.792h0a6.774,6.774,0,0,1,7.39.6l384.873,215.4c6.158,3.58,10.469,11.337,10.469,17.9V494.846a9.377,9.377,0,0,1-2.463,6.564h0a.6.6,0,0,0-.616.6l-23.4,13.127,1.232-22.077L44.606,286.007c-6.158-3.58-10.469-11.337-10.469-17.9V22.87Z" transform="translate(-10.121 0.039)"/><path class="b" d="M418.511,237.078V497.232c0,6.563-4.926,9.547-10.469,5.967L23.169,287.8c-6.158-3.58-10.469-11.337-10.469-17.9V9.742c0-6.564,4.926-9.547,10.469-5.967l384.873,215.4C414.2,222.161,418.511,230.514,418.511,237.078Z" transform="translate(-12.7 11.377)"/><path class="c" d="M395.363,225.168V437.587c0,5.37-3.695,7.757-8.621,4.773L23.421,238.295c-4.926-2.983-8.621-8.95-8.621-14.32V11.555c0-5.37,3.695-7.757,8.621-4.773l363.32,204.066C391.668,213.234,395.363,219.8,395.363,225.168Z" transform="translate(-1.868 27.464)"/><path class="d" d="M7.211,0c4.062.046,7.419,5.72,7.5,12.675S11.562,25.23,7.5,25.184.081,19.464,0,12.51,3.149-.045,7.211,0Z" transform="matrix(0.92, -0.392, 0.392, 0.92, 171.81, 369.767)"/></g><g transform="translate(-0.05 406.089)"><path class="e" d="M.2,133.49c.616-1.193,1.847-1.79,3.079-2.983L109.2,71.435a22.968,22.968,0,0,1,21.553,0l181.66,102.033a19.392,19.392,0,0,1,3.695,2.983l1.232-1.79v4.774h0c0,1.79-1.847,4.177-4.311,5.37l-105.3,59.072c-6.158,2.983-15.395,2.983-21.553,0L4.511,142.44C1.432,140.65.2,138.86.2,136.474h0V133.49Z" transform="translate(1.339 -64.424)"/><path class="d" d="M313.7,172.3,131.423,70.263c-6.158-2.983-15.395-2.983-21.553,0L4.568,129.334c-6.158,3.58-6.158,8.354,0,11.934L186.229,242.7a22.968,22.968,0,0,0,21.553,0l105.3-59.072C319.241,180.649,319.241,175.279,313.7,172.3Z" transform="translate(0.05 -68.025)"/><path class="e" d="M261.54,153.942,117.444,73.39c-4.926-2.387-12.316-2.387-16.627,0L10.295,124.108c-4.926,2.387-4.926,6.564,0,9.547l144.1,80.552c4.926,2.387,12.316,2.387,16.627,0l90.522-50.718C266.467,161.1,266.467,156.329,261.54,153.942Z" transform="translate(34.351 -50.269)"/><path class="e" d="M8.332,0C12.946.011,16.7,4.431,16.71,9.871S12.993,19.713,8.378,19.7.013,15.271,0,9.831,3.718-.011,8.332,0Z" transform="matrix(0.076, -0.997, 0.997, 0.076, 66.399, 47.046)"/><path class="b" d="M29.919,75.846,21.3,71.072a1.919,1.919,0,0,0-2.463,0l-1.847,1.79c-.616.6-.616,1.193,0,1.193l8.005,4.773a1.919,1.919,0,0,0,2.463,0l3.079-1.79A1.821,1.821,0,0,0,29.919,75.846Z" transform="translate(85.543 -55.111)"/><path class="b" d="M28.319,76.746,19.7,71.973a1.919,1.919,0,0,0-2.463,0l-1.847,1.79c-.616.6-.616,1.193,0,1.193l8.005,4.773a1.919,1.919,0,0,0,2.463,0l3.079-1.79A1.821,1.821,0,0,0,28.319,76.746Z" transform="translate(77.291 -50.641)"/><path class="b" d="M21.834,81.346l-8.621-4.773a1.918,1.918,0,0,0-2.463,0L8.287,77.766c-.616.6-.616,1.193,0,1.193l8.005,4.774a1.919,1.919,0,0,0,2.463,0l3.079-1.79C22.45,82.539,22.45,81.943,21.834,81.346Z" transform="translate(40.669 -27.794)"/><path class="b" d="M19.719,82.246,11.1,77.472a1.177,1.177,0,0,0-1.847,0L6.787,78.666c-.616.6-.616,1.193,0,1.193l8.005,4.773a1.919,1.919,0,0,0,2.463,0l3.079-1.79A.59.59,0,0,0,19.719,82.246Z" transform="translate(32.932 -23.324)"/><path class="f" d="M51.758,89.577,45.6,86l1.232-.6,6.774,4.177-6.774,3.58-1.232-.6Z" transform="translate(235.511 18.274)"/><path class="f" d="M9.132,84.577,15.29,87.56l-1.232.6L7.9,84.577,14.058,80.4l1.232.6Z" transform="translate(41.056 -6.561)"/></g><g transform="translate(241.398 546.16)"><path class="g" d="M55.595,102.837,67.295,91.5,51.9,94.483Z" transform="translate(26.559 -91.5)"/><path class="e" d="M2.4,0C3.758.015,4.877,1.907,4.9,4.225S3.854,8.41,2.5,8.395.027,6.488,0,4.17,1.05-.015,2.4,0Z" transform="matrix(0.92, -0.392, 0.392, 0.92, 0, 46.728)"/><path class="e" d="M2.4,0C3.758.015,4.877,1.907,4.9,4.225S3.854,8.41,2.5,8.395.027,6.488,0,4.17,1.05-.015,2.4,0Z" transform="matrix(0.92, -0.392, 0.392, 0.92, 75.761, 4.385)"/><path class="e" d="M43.811,142.221l75.743-42.364L115.243,92.1,39.5,134.465Z" transform="translate(-37.4 -88.52)"/></g><g transform="translate(124.649 79.082)"><path class="h" d="M317.63,184.941V351.416c0,4.177-3.079,5.967-6.774,3.58L26.974,195.681c-3.695-2.387-6.774-7.16-6.774-11.337V17.87c0-4.177,3.079-5.967,6.774-3.58L311.472,173.6A14.3,14.3,0,0,1,317.63,184.941Z" transform="translate(-20.2 -13.221)"/><g transform="translate(0 28.516)"><path class="f" d="M317.63,185.071V327.678c0,4.177-3.079,5.967-6.774,3.58L26.974,171.944c-3.695-2.387-6.774-7.16-6.774-11.337V18" transform="translate(-20.2 -18)"/></g><path class="i" d="M106.8,70.044V184.011L56.3,155.37V42Z" transform="translate(166.003 129.72)"/><path class="j" d="M52.49,32.307V44.241L21.7,26.937V15.6Z" transform="translate(-12.463 -1.404)"/><g transform="translate(47.416 106.085)"><path class="i" d="M136.28,71.994,71.006,35,27.9,59.464,93.175,96.458Z" transform="translate(-27.9 -11.133)"/><path class="i" d="M136.28,71.994,71.006,35,27.9,59.464,93.175,96.458Z" transform="translate(-27.9 -11.133)"/><path class="d" d="M81.606,41.2V65.664L38.5,89.531V65.664Z" transform="translate(26.774 19.662)"/><path class="k" d="M93.175,99.962,27.9,63.564V39.1L93.175,76.094Z" transform="translate(-27.9 9.231)"/><path class="d" d="M60.053,35V59.464L38.5,71.994V47.53Z" transform="translate(26.774 -11.133)"/><path class="k" d="M57.069,47.53,34.9,35V59.464l22.169,12.53Z" transform="translate(8.206 -11.133)"/><path class="i" d="M114.727,54.867,71.006,31,27.9,54.867,49.453,67.4l21.553-12.53L93.175,67.4Z" transform="translate(-27.9 -31)"/><path class="d" d="M52.953,35V59.464L31.4,71.994V47.53Z" transform="translate(-9.847 -11.133)"/><path class="k" d="M27.9,35V59.464l21.553,12.53V47.53Z" transform="translate(-27.9 -11.133)"/></g></g></g></svg>