<svg xmlns="http://www.w3.org/2000/svg" viewBox="1221.555 4756 463.048 366.182">
  <defs>
    <style>
      .cls-1 {
        fill: #839e52;
      }

      .cls-2 {
        fill: #a6d069;
      }

      .cls-3 {
        fill: #bcbec0;
      }

      .cls-4 {
        fill: #e6e7e8;
      }

      .cls-5 {
        fill: #fbb040;
      }

      .cls-6 {
        fill: #ffce00;
      }

      .cls-7 {
        fill: #808285;
      }

      .cls-8 {
        fill: #95aab5;
      }

      .cls-9 {
        fill: #4ac8ff;
      }

      .cls-10 {
        fill: #ffdbab;
      }

      .cls-11 {
        fill: #9ca077;
      }

      .cls-12 {
        fill: #f7b889;
      }
    </style>
  </defs>
  <g id="marketplace_graphic" data-name="marketplace graphic" transform="translate(1221.555 4756)">
    <g id="project_post_1_" transform="translate(28.669)">
      <g id="Group_58" data-name="Group 58">
        <g id="Group_57" data-name="Group 57">
          <path id="Path_316" data-name="Path 316" class="cls-1" d="M29.819,1.5H386.01a21.416,21.416,0,0,1,21.719,21.285V255.612H8.1V22.785C8.1,11.056,18.091,1.5,29.819,1.5Z" transform="translate(-1.584 5.016)"/>
          <path id="Path_317" data-name="Path 317" class="cls-1" d="M29.819,1.5H386.01a21.416,21.416,0,0,1,21.719,21.285V255.612H8.1V22.35C8.1,10.622,17.656,1.5,29.819,1.5Z" transform="translate(-1.584 5.016)"/>
          <path id="Path_318" data-name="Path 318" class="cls-1" d="M29.819,1.4H386.01a21.416,21.416,0,0,1,21.719,21.285V255.946H8.1V22.685A21.416,21.416,0,0,1,29.819,1.4Z" transform="translate(-1.584 4.681)"/>
          <path id="Path_319" data-name="Path 319" class="cls-1" d="M29.719,1.4H385.91a21.416,21.416,0,0,1,21.719,21.285V255.946H8V22.685C8,10.956,17.991,1.4,29.719,1.4Z" transform="translate(-1.919 4.681)"/>
          <path id="Path_320" data-name="Path 320" class="cls-1" d="M29.719,1.4H385.91a21.416,21.416,0,0,1,21.719,21.285V255.946H8V22.25C8,10.956,17.991,1.4,29.719,1.4Z" transform="translate(-1.919 4.681)"/>
          <path id="Path_321" data-name="Path 321" class="cls-1" d="M29.719,1.4H385.91a21.416,21.416,0,0,1,21.719,21.285V255.946H8V22.25C8,10.522,17.556,1.4,29.719,1.4Z" transform="translate(-1.919 4.681)"/>
          <path id="Path_322" data-name="Path 322" class="cls-1" d="M29.719,1.3H385.91a21.416,21.416,0,0,1,21.719,21.285V255.846H8V22.585A21.416,21.416,0,0,1,29.719,1.3Z" transform="translate(-1.919 4.347)"/>
          <path id="Path_323" data-name="Path 323" class="cls-1" d="M29.619,1.3H385.81a21.416,21.416,0,0,1,21.719,21.285V255.846H7.9V22.15C7.9,10.856,17.891,1.3,29.619,1.3Z" transform="translate(-2.253 4.347)"/>
          <path id="Path_324" data-name="Path 324" class="cls-1" d="M29.619,1.3H385.81a21.416,21.416,0,0,1,21.719,21.285V255.846H7.9V22.15C7.9,10.422,17.456,1.3,29.619,1.3Z" transform="translate(-2.253 4.347)"/>
          <path id="Path_325" data-name="Path 325" class="cls-1" d="M29.619,1.2H385.81a21.416,21.416,0,0,1,21.719,21.285V255.746H7.9V22.485A21.416,21.416,0,0,1,29.619,1.2Z" transform="translate(-2.253 4.013)"/>
          <path id="Path_326" data-name="Path 326" class="cls-1" d="M29.519,1.2H385.71a21.416,21.416,0,0,1,21.719,21.285V255.746H7.8V22.485C7.8,10.756,17.791,1.2,29.519,1.2Z" transform="translate(-2.587 4.013)"/>
          <path id="Path_327" data-name="Path 327" class="cls-1" d="M29.519,1.2H385.71a21.416,21.416,0,0,1,21.719,21.285V255.746H7.8V22.05C7.8,10.322,17.356,1.2,29.519,1.2Z" transform="translate(-2.587 4.013)"/>
          <path id="Path_328" data-name="Path 328" class="cls-1" d="M29.519,1.1H385.71a21.416,21.416,0,0,1,21.719,21.285V255.646H7.8V22.385A21.416,21.416,0,0,1,29.519,1.1Z" transform="translate(-2.587 3.678)"/>
          <path id="Path_329" data-name="Path 329" class="cls-1" d="M29.419,1.1H385.61a21.416,21.416,0,0,1,21.719,21.285V255.646H7.7V22.385C7.7,10.656,17.691,1.1,29.419,1.1Z" transform="translate(-2.922 3.678)"/>
          <path id="Path_330" data-name="Path 330" class="cls-1" d="M29.419,1.1H385.61a21.416,21.416,0,0,1,21.719,21.285V255.646H7.7V21.95C7.7,10.656,17.691,1.1,29.419,1.1Z" transform="translate(-2.922 3.678)"/>
          <path id="Path_331" data-name="Path 331" class="cls-1" d="M29.419,1H385.61a21.416,21.416,0,0,1,21.719,21.285V255.546H7.7V22.285A21.416,21.416,0,0,1,29.419,1Z" transform="translate(-2.922 3.344)"/>
          <path id="Path_332" data-name="Path 332" class="cls-1" d="M29.419,1H385.61a21.416,21.416,0,0,1,21.719,21.285V255.546H7.7V22.285A21.416,21.416,0,0,1,29.419,1Z" transform="translate(-2.922 3.344)"/>
          <path id="Path_333" data-name="Path 333" class="cls-1" d="M29.319,1H385.51a21.416,21.416,0,0,1,21.719,21.285V255.546H7.6V21.85C7.6,10.556,17.591,1,29.319,1Z" transform="translate(-3.256 3.344)"/>
          <path id="Path_334" data-name="Path 334" class="cls-1" d="M29.319,1H385.51a21.416,21.416,0,0,1,21.719,21.285V255.546H7.6V21.85C7.6,10.122,17.156,1,29.319,1Z" transform="translate(-3.256 3.344)"/>
          <path id="Path_335" data-name="Path 335" class="cls-1" d="M29.319.9H385.51a21.416,21.416,0,0,1,21.719,21.285V255.446H7.6V22.185A21.416,21.416,0,0,1,29.319.9Z" transform="translate(-3.256 3.009)"/>
          <path id="Path_336" data-name="Path 336" class="cls-1" d="M29.219.9H385.41a21.416,21.416,0,0,1,21.719,21.285V255.446H7.5V22.185C7.5,10.456,17.491.9,29.219.9Z" transform="translate(-3.591 3.009)"/>
          <path id="Path_337" data-name="Path 337" class="cls-1" d="M29.219.9H385.41a21.416,21.416,0,0,1,21.719,21.285V255.446H7.5V21.75C7.5,10.022,17.056.9,29.219.9Z" transform="translate(-3.591 3.009)"/>
          <path id="Path_338" data-name="Path 338" class="cls-1" d="M29.219.8H385.41a21.416,21.416,0,0,1,21.719,21.285V255.346H7.5V22.085A21.416,21.416,0,0,1,29.219.8Z" transform="translate(-3.591 2.675)"/>
          <path id="Path_339" data-name="Path 339" class="cls-1" d="M29.119.8H385.31a21.416,21.416,0,0,1,21.719,21.285V255.346H7.4V22.085C7.4,10.356,17.391.8,29.119.8Z" transform="translate(-3.925 2.675)"/>
          <path id="Path_340" data-name="Path 340" class="cls-1" d="M29.119.8H385.31a21.416,21.416,0,0,1,21.719,21.285V255.346H7.4V21.65C7.4,10.356,17.391.8,29.119.8Z" transform="translate(-3.925 2.675)"/>
          <path id="Path_341" data-name="Path 341" class="cls-1" d="M29.119.8H385.31a21.416,21.416,0,0,1,21.719,21.285V255.346H7.4V21.65C7.4,9.922,16.956.8,29.119.8Z" transform="translate(-3.925 2.675)"/>
          <path id="Path_342" data-name="Path 342" class="cls-1" d="M29.119.7H385.31a21.416,21.416,0,0,1,21.719,21.285V255.246H7.4V21.985A21.416,21.416,0,0,1,29.119.7Z" transform="translate(-3.925 2.341)"/>
          <path id="Path_343" data-name="Path 343" class="cls-1" d="M29.019.7H385.21a21.416,21.416,0,0,1,21.719,21.285V255.246H7.3V21.55C7.3,10.256,17.291.7,29.019.7Z" transform="translate(-4.259 2.341)"/>
          <path id="Path_344" data-name="Path 344" class="cls-1" d="M29.019.7H385.21a21.416,21.416,0,0,1,21.719,21.285V255.246H7.3V21.55C7.3,9.822,16.856.7,29.019.7Z" transform="translate(-4.259 2.341)"/>
          <path id="Path_345" data-name="Path 345" class="cls-1" d="M29.019.6H385.21a21.416,21.416,0,0,1,21.719,21.285V255.146H7.3V21.885A21.416,21.416,0,0,1,29.019.6Z" transform="translate(-4.259 2.006)"/>
          <path id="Path_346" data-name="Path 346" class="cls-1" d="M28.919.6H385.11a21.416,21.416,0,0,1,21.719,21.285V255.146H7.2V21.885C7.2,10.156,17.191.6,28.919.6Z" transform="translate(-4.594 2.006)"/>
          <path id="Path_347" data-name="Path 347" class="cls-1" d="M28.919.6H385.11a21.416,21.416,0,0,1,21.719,21.285V255.146H7.2V21.45C7.2,9.722,16.756.6,28.919.6Z" transform="translate(-4.594 2.006)"/>
          <path id="Path_348" data-name="Path 348" class="cls-1" d="M28.919.5H385.11a21.416,21.416,0,0,1,21.719,21.285V255.046H7.2V21.785A21.416,21.416,0,0,1,28.919.5Z" transform="translate(-4.594 1.672)"/>
          <path id="Path_349" data-name="Path 349" class="cls-1" d="M28.819.5H385.01a21.416,21.416,0,0,1,21.719,21.285V254.612H7.1V21.785C7.1,10.056,17.091.5,28.819.5Z" transform="translate(-4.928 1.672)"/>
          <path id="Path_350" data-name="Path 350" class="cls-1" d="M28.819.5H385.01a21.416,21.416,0,0,1,21.719,21.285V254.612H7.1V21.35C7.1,10.056,17.091.5,28.819.5Z" transform="translate(-4.928 1.672)"/>
          <path id="Path_351" data-name="Path 351" class="cls-1" d="M28.819.4H385.01a21.416,21.416,0,0,1,21.719,21.285V254.946H7.1V21.685A21.416,21.416,0,0,1,28.819.4Z" transform="translate(-4.928 1.338)"/>
          <path id="Path_352" data-name="Path 352" class="cls-1" d="M28.819.4H385.01a21.416,21.416,0,0,1,21.719,21.285V254.946H7.1V21.685A21.416,21.416,0,0,1,28.819.4Z" transform="translate(-4.928 1.338)"/>
          <path id="Path_353" data-name="Path 353" class="cls-1" d="M28.719.4H384.91a21.416,21.416,0,0,1,21.719,21.285V254.946H7V21.25C7,9.956,16.991.4,28.719.4Z" transform="translate(-5.262 1.338)"/>
          <path id="Path_354" data-name="Path 354" class="cls-1" d="M28.719.4H384.91a21.416,21.416,0,0,1,21.719,21.285V254.946H7V21.25C7,9.522,16.556.4,28.719.4Z" transform="translate(-5.262 1.338)"/>
          <path id="Path_355" data-name="Path 355" class="cls-1" d="M28.719.3H384.91a21.416,21.416,0,0,1,21.719,21.285V254.846H7V21.585A21.416,21.416,0,0,1,28.719.3Z" transform="translate(-5.262 1.003)"/>
          <path id="Path_356" data-name="Path 356" class="cls-1" d="M28.619.3H384.81a21.416,21.416,0,0,1,21.719,21.285V254.846H6.9V21.585C6.9,9.856,16.891.3,28.619.3Z" transform="translate(-5.597 1.003)"/>
          <path id="Path_357" data-name="Path 357" class="cls-1" d="M28.619.3H384.81a21.416,21.416,0,0,1,21.719,21.285V254.846H6.9V21.15C6.9,9.422,16.456.3,28.619.3Z" transform="translate(-5.597 1.003)"/>
          <path id="Path_358" data-name="Path 358" class="cls-1" d="M28.619.2H384.81a21.416,21.416,0,0,1,21.719,21.285V254.746H6.9V21.485A21.416,21.416,0,0,1,28.619.2Z" transform="translate(-5.597 0.669)"/>
          <path id="Path_359" data-name="Path 359" class="cls-1" d="M28.519.2H384.71a21.416,21.416,0,0,1,21.719,21.285V254.746H6.8V21.485C6.8,9.756,16.791.2,28.519.2Z" transform="translate(-5.931 0.669)"/>
          <path id="Path_360" data-name="Path 360" class="cls-1" d="M28.519.2H384.71a21.416,21.416,0,0,1,21.719,21.285V254.746H6.8V21.05C6.8,9.756,16.791.2,28.519.2Z" transform="translate(-5.931 0.669)"/>
          <path id="Path_361" data-name="Path 361" class="cls-1" d="M28.519.2H384.71a21.416,21.416,0,0,1,21.719,21.285V254.746H6.8V21.05C6.8,9.322,16.356.2,28.519.2Z" transform="translate(-5.931 0.669)"/>
          <path id="Path_362" data-name="Path 362" class="cls-1" d="M28.519.1H384.71a21.416,21.416,0,0,1,21.719,21.285V254.646H6.8V21.385A21.416,21.416,0,0,1,28.519.1Z" transform="translate(-5.931 0.334)"/>
          <path id="Path_363" data-name="Path 363" class="cls-1" d="M28.419.1H384.61a21.416,21.416,0,0,1,21.719,21.285V254.646H6.7V20.95C6.7,9.656,16.691.1,28.419.1Z" transform="translate(-6.266 0.334)"/>
          <path id="Path_364" data-name="Path 364" class="cls-1" d="M28.419.1H384.61a21.416,21.416,0,0,1,21.719,21.285V254.646H6.7V20.95C6.7,9.222,16.256.1,28.419.1Z" transform="translate(-6.266 0.334)"/>
          <path id="Path_365" data-name="Path 365" class="cls-1" d="M28.419,0H384.61a21.416,21.416,0,0,1,21.719,21.285V254.546H6.7V21.285A21.416,21.416,0,0,1,28.419,0Z" transform="translate(-6.266 0)"/>
          <path id="Path_366" data-name="Path 366" class="cls-1" d="M28.319,0H384.51a21.416,21.416,0,0,1,21.719,21.285V254.546H6.6V21.285C6.6,9.556,16.591,0,28.319,0Z" transform="translate(-6.6 0)"/>
        </g>
        <path id="Path_367" data-name="Path 367" class="cls-2" d="M28.319,0H384.51a21.416,21.416,0,0,1,21.719,21.285V254.546H6.6V21.285C6.6,9.556,16.591,0,28.319,0Z" transform="translate(-6.6 0)"/>
      </g>
      <g id="Group_60" data-name="Group 60" transform="translate(0 39.094)">
        <g id="Group_59" data-name="Group 59">
          <rect id="Rectangle_695" data-name="Rectangle 695" class="cls-3" width="399.629" height="215.452" transform="translate(6.516 6.516)"/>
          <rect id="Rectangle_696" data-name="Rectangle 696" class="cls-3" width="399.629" height="215.452" transform="translate(6.516 6.081)"/>
          <rect id="Rectangle_697" data-name="Rectangle 697" class="cls-3" width="399.629" height="215.452" transform="translate(6.516 6.081)"/>
          <rect id="Rectangle_698" data-name="Rectangle 698" class="cls-3" width="399.629" height="215.452" transform="translate(6.081 6.081)"/>
          <rect id="Rectangle_699" data-name="Rectangle 699" class="cls-3" width="399.629" height="215.452" transform="translate(6.081 5.647)"/>
          <rect id="Rectangle_700" data-name="Rectangle 700" class="cls-3" width="399.629" height="215.452" transform="translate(6.081 5.647)"/>
          <rect id="Rectangle_701" data-name="Rectangle 701" class="cls-3" width="399.629" height="215.452" transform="translate(6.081 5.647)"/>
          <rect id="Rectangle_702" data-name="Rectangle 702" class="cls-3" width="399.629" height="215.452" transform="translate(5.647 5.213)"/>
          <rect id="Rectangle_703" data-name="Rectangle 703" class="cls-3" width="399.629" height="215.452" transform="translate(5.647 5.213)"/>
          <rect id="Rectangle_704" data-name="Rectangle 704" class="cls-3" width="399.629" height="215.452" transform="translate(5.647 5.213)"/>
          <rect id="Rectangle_705" data-name="Rectangle 705" class="cls-3" width="399.629" height="215.452" transform="translate(5.213 5.213)"/>
          <rect id="Rectangle_706" data-name="Rectangle 706" class="cls-3" width="399.629" height="215.452" transform="translate(5.213 4.778)"/>
          <rect id="Rectangle_707" data-name="Rectangle 707" class="cls-3" width="399.629" height="215.452" transform="translate(5.213 4.778)"/>
          <rect id="Rectangle_708" data-name="Rectangle 708" class="cls-3" width="399.629" height="215.452" transform="translate(4.778 4.778)"/>
          <rect id="Rectangle_709" data-name="Rectangle 709" class="cls-3" width="399.629" height="215.452" transform="translate(4.778 4.344)"/>
          <rect id="Rectangle_710" data-name="Rectangle 710" class="cls-3" width="399.629" height="215.452" transform="translate(4.778 4.344)"/>
          <rect id="Rectangle_711" data-name="Rectangle 711" class="cls-3" width="399.629" height="215.452" transform="translate(4.778 4.344)"/>
          <rect id="Rectangle_712" data-name="Rectangle 712" class="cls-3" width="399.629" height="215.452" transform="translate(4.344 3.909)"/>
          <rect id="Rectangle_713" data-name="Rectangle 713" class="cls-3" width="399.629" height="215.452" transform="translate(4.344 3.909)"/>
          <rect id="Rectangle_714" data-name="Rectangle 714" class="cls-3" width="399.629" height="215.452" transform="translate(4.344 3.909)"/>
          <rect id="Rectangle_715" data-name="Rectangle 715" class="cls-3" width="399.629" height="215.452" transform="translate(3.909 3.909)"/>
          <rect id="Rectangle_716" data-name="Rectangle 716" class="cls-3" width="399.629" height="215.452" transform="translate(3.909 3.475)"/>
          <rect id="Rectangle_717" data-name="Rectangle 717" class="cls-3" width="399.629" height="215.452" transform="translate(3.909 3.475)"/>
          <rect id="Rectangle_718" data-name="Rectangle 718" class="cls-3" width="399.629" height="215.452" transform="translate(3.475 3.475)"/>
          <rect id="Rectangle_719" data-name="Rectangle 719" class="cls-3" width="399.629" height="215.452" transform="translate(3.475 3.041)"/>
          <rect id="Rectangle_720" data-name="Rectangle 720" class="cls-3" width="399.629" height="215.452" transform="translate(3.475 3.041)"/>
          <rect id="Rectangle_721" data-name="Rectangle 721" class="cls-3" width="399.629" height="215.452" transform="translate(3.475 3.041)"/>
          <rect id="Rectangle_722" data-name="Rectangle 722" class="cls-3" width="399.629" height="215.452" transform="translate(3.041 2.606)"/>
          <rect id="Rectangle_723" data-name="Rectangle 723" class="cls-3" width="399.629" height="215.452" transform="translate(3.041 2.606)"/>
          <rect id="Rectangle_724" data-name="Rectangle 724" class="cls-3" width="399.629" height="215.452" transform="translate(3.041 2.606)"/>
          <rect id="Rectangle_725" data-name="Rectangle 725" class="cls-3" width="399.629" height="215.452" transform="translate(2.606 2.606)"/>
          <rect id="Rectangle_726" data-name="Rectangle 726" class="cls-3" width="399.629" height="215.452" transform="translate(2.606 2.172)"/>
          <rect id="Rectangle_727" data-name="Rectangle 727" class="cls-3" width="399.629" height="215.452" transform="translate(2.606 2.172)"/>
          <rect id="Rectangle_728" data-name="Rectangle 728" class="cls-3" width="399.629" height="215.452" transform="translate(2.172 2.172)"/>
          <rect id="Rectangle_729" data-name="Rectangle 729" class="cls-3" width="399.629" height="215.452" transform="translate(2.172 1.738)"/>
          <rect id="Rectangle_730" data-name="Rectangle 730" class="cls-3" width="399.629" height="215.452" transform="translate(2.172 1.738)"/>
          <rect id="Rectangle_731" data-name="Rectangle 731" class="cls-3" width="399.629" height="215.452" transform="translate(2.172 1.738)"/>
          <rect id="Rectangle_732" data-name="Rectangle 732" class="cls-3" width="399.629" height="215.452" transform="translate(1.738 1.303)"/>
          <rect id="Rectangle_733" data-name="Rectangle 733" class="cls-3" width="399.629" height="215.452" transform="translate(1.738 1.303)"/>
          <rect id="Rectangle_734" data-name="Rectangle 734" class="cls-3" width="399.629" height="215.452" transform="translate(1.738 1.303)"/>
          <rect id="Rectangle_735" data-name="Rectangle 735" class="cls-3" width="399.629" height="215.452" transform="translate(1.303 1.303)"/>
          <rect id="Rectangle_736" data-name="Rectangle 736" class="cls-3" width="399.629" height="215.452" transform="translate(1.303 0.869)"/>
          <rect id="Rectangle_737" data-name="Rectangle 737" class="cls-3" width="399.629" height="215.452" transform="translate(1.303 0.869)"/>
          <rect id="Rectangle_738" data-name="Rectangle 738" class="cls-3" width="399.629" height="215.452" transform="translate(0.869 0.869)"/>
          <rect id="Rectangle_739" data-name="Rectangle 739" class="cls-3" width="399.629" height="215.452" transform="translate(0.869 0.434)"/>
          <rect id="Rectangle_740" data-name="Rectangle 740" class="cls-3" width="399.629" height="215.452" transform="translate(0.869 0.434)"/>
          <rect id="Rectangle_741" data-name="Rectangle 741" class="cls-3" width="399.629" height="215.452" transform="translate(0.869 0.434)"/>
          <rect id="Rectangle_742" data-name="Rectangle 742" class="cls-3" width="399.629" height="215.452" transform="translate(0.434)"/>
          <rect id="Rectangle_743" data-name="Rectangle 743" class="cls-3" width="399.629" height="215.452" transform="translate(0.434)"/>
          <rect id="Rectangle_744" data-name="Rectangle 744" class="cls-3" width="399.629" height="215.452" transform="translate(0.434)"/>
          <rect id="Rectangle_745" data-name="Rectangle 745" class="cls-3" width="399.629" height="215.452"/>
        </g>
        <rect id="Rectangle_746" data-name="Rectangle 746" class="cls-4" width="399.629" height="215.452"/>
      </g>
      <g id="Group_62" data-name="Group 62" transform="translate(40.832 76.451)">
        <g id="Group_61" data-name="Group 61">
          <path id="Path_368" data-name="Path 368" class="cls-5" d="M86.369,123.482,32.941,112.188,16,60.5,52.488,20.1l52.994,10.859,16.941,51.691Z" transform="translate(-16 -9.241)"/>
          <path id="Path_369" data-name="Path 369" class="cls-5" d="M86.369,123.382,32.941,112.523,16,60.832,52.488,20l52.994,11.294,16.941,51.691Z" transform="translate(-16 -9.575)"/>
          <path id="Path_370" data-name="Path 370" class="cls-5" d="M86.369,123.382,32.941,112.088,16,60.4,52.488,20l52.994,10.859,16.941,51.691Z" transform="translate(-16 -9.575)"/>
          <path id="Path_371" data-name="Path 371" class="cls-5" d="M86.369,123.282,32.941,112.423,16,60.732,52.488,19.9l52.994,11.294,16.941,51.691Z" transform="translate(-16 -9.909)"/>
          <path id="Path_372" data-name="Path 372" class="cls-5" d="M86.369,123.282,32.941,111.988,16,60.3,52.488,19.9l52.994,10.859,16.941,51.691Z" transform="translate(-16 -9.909)"/>
          <path id="Path_373" data-name="Path 373" class="cls-5" d="M86.369,123.182,32.941,112.323,16,60.632,52.488,19.8l52.994,11.294,16.941,51.691Z" transform="translate(-16 -10.244)"/>
          <path id="Path_374" data-name="Path 374" class="cls-5" d="M86.369,123.182,32.941,111.888,16,60.2,52.488,19.8l52.994,10.859,16.941,51.691Z" transform="translate(-16 -10.244)"/>
          <path id="Path_375" data-name="Path 375" class="cls-5" d="M86.369,123.082,32.941,112.223,16,60.532,52.488,19.7l52.994,11.294,16.941,51.691Z" transform="translate(-16 -10.578)"/>
          <path id="Path_376" data-name="Path 376" class="cls-5" d="M86.369,123.082,32.941,111.788,16,60.1,52.488,19.7l52.994,10.859,16.941,51.691Z" transform="translate(-16 -10.578)"/>
          <path id="Path_377" data-name="Path 377" class="cls-5" d="M86.369,122.982,32.941,112.123,16,60.432,52.488,19.6l52.994,11.294,16.941,51.691Z" transform="translate(-16 -10.912)"/>
          <path id="Path_378" data-name="Path 378" class="cls-5" d="M86.369,122.982,32.941,111.688,16,60,52.488,19.6l52.994,10.859,16.941,51.691Z" transform="translate(-16 -10.912)"/>
          <path id="Path_379" data-name="Path 379" class="cls-5" d="M86.369,122.882,32.941,112.023,16,60.332,52.488,19.5l52.994,11.294,16.941,51.691Z" transform="translate(-16 -11.247)"/>
          <path id="Path_380" data-name="Path 380" class="cls-5" d="M86.369,122.882,32.941,111.588,16,59.9,52.488,19.5l52.994,10.859,16.941,51.691Z" transform="translate(-16 -11.247)"/>
          <path id="Path_381" data-name="Path 381" class="cls-5" d="M86.369,122.782l-53.429-10.86L16,60.232,52.488,19.4l52.994,11.294,16.941,51.691Z" transform="translate(-16 -11.581)"/>
          <path id="Path_382" data-name="Path 382" class="cls-5" d="M86.369,122.782,32.941,111.488,16,59.8,52.488,19.4l52.994,10.859,16.941,51.691Z" transform="translate(-16 -11.581)"/>
          <path id="Path_383" data-name="Path 383" class="cls-5" d="M86.369,122.682,32.941,111.823,16,60.132,52.488,19.3l52.994,11.294,16.941,51.691Z" transform="translate(-16 -11.916)"/>
          <path id="Path_384" data-name="Path 384" class="cls-5" d="M86.369,122.682,32.941,111.388,16,59.7,52.488,19.3l52.994,10.859,16.941,51.691Z" transform="translate(-16 -11.916)"/>
          <path id="Path_385" data-name="Path 385" class="cls-5" d="M86.369,122.582,32.941,111.723,16,60.032,52.488,19.2l52.994,11.294,16.941,51.691Z" transform="translate(-16 -12.25)"/>
          <path id="Path_386" data-name="Path 386" class="cls-5" d="M86.369,122.582,32.941,111.288,16,59.6,52.488,19.2l52.994,10.859,16.941,51.691Z" transform="translate(-16 -12.25)"/>
          <path id="Path_387" data-name="Path 387" class="cls-5" d="M86.369,122.482,32.941,111.623,16,59.932,52.488,19.1l52.994,11.294,16.941,51.691Z" transform="translate(-16 -12.584)"/>
          <path id="Path_388" data-name="Path 388" class="cls-5" d="M86.369,122.482,32.941,111.188,16,59.5,52.488,19.1l52.994,10.859,16.941,51.691Z" transform="translate(-16 -12.584)"/>
          <path id="Path_389" data-name="Path 389" class="cls-5" d="M86.369,122.382,32.941,111.523,16,59.832,52.488,19l52.994,11.294,16.941,51.691Z" transform="translate(-16 -12.919)"/>
          <path id="Path_390" data-name="Path 390" class="cls-5" d="M86.369,122.382,32.941,111.088,16,59.4,52.488,19l52.994,10.859,16.941,51.691Z" transform="translate(-16 -12.919)"/>
          <path id="Path_391" data-name="Path 391" class="cls-5" d="M86.369,122.282,32.941,111.423,16,59.732,52.488,18.9l52.994,11.294,16.941,51.691Z" transform="translate(-16 -13.253)"/>
          <path id="Path_392" data-name="Path 392" class="cls-5" d="M86.369,122.282,32.941,110.988,16,59.3,52.488,18.9l52.994,10.859,16.941,51.691Z" transform="translate(-16 -13.253)"/>
          <path id="Path_393" data-name="Path 393" class="cls-5" d="M86.369,122.182,32.941,111.323,16,59.632,52.488,18.8l52.994,11.294,16.941,51.691Z" transform="translate(-16 -13.587)"/>
          <path id="Path_394" data-name="Path 394" class="cls-5" d="M86.369,122.182,32.941,110.888,16,59.2,52.488,18.8l52.994,10.859,16.941,51.691Z" transform="translate(-16 -13.587)"/>
          <path id="Path_395" data-name="Path 395" class="cls-5" d="M86.369,122.082,32.941,111.223,16,59.532,52.488,18.7l52.994,11.294,16.941,51.691Z" transform="translate(-16 -13.922)"/>
          <path id="Path_396" data-name="Path 396" class="cls-5" d="M86.369,122.082,32.941,110.788,16,59.1,52.488,18.7l52.994,10.859,16.941,51.691Z" transform="translate(-16 -13.922)"/>
          <path id="Path_397" data-name="Path 397" class="cls-5" d="M86.369,121.982,32.941,111.123,16,59.432,52.488,18.6l52.994,11.294,16.941,51.691Z" transform="translate(-16 -14.256)"/>
          <path id="Path_398" data-name="Path 398" class="cls-5" d="M86.369,121.982,32.941,110.688,16,59,52.488,18.6l52.994,10.859,16.941,51.691Z" transform="translate(-16 -14.256)"/>
          <path id="Path_399" data-name="Path 399" class="cls-5" d="M86.369,121.882,32.941,111.023,16,59.332,52.488,18.5l52.994,11.294,16.941,51.691Z" transform="translate(-16 -14.591)"/>
          <path id="Path_400" data-name="Path 400" class="cls-5" d="M86.369,121.882,32.941,110.588,16,58.9,52.488,18.5l52.994,10.859,16.941,51.691Z" transform="translate(-16 -14.591)"/>
          <path id="Path_401" data-name="Path 401" class="cls-5" d="M86.369,121.782l-53.429-10.86L16,59.232,52.488,18.4l52.994,11.294,16.941,51.691Z" transform="translate(-16 -14.925)"/>
          <path id="Path_402" data-name="Path 402" class="cls-5" d="M86.369,121.782,32.941,110.488,16,58.8,52.488,18.4l52.994,10.859,16.941,51.691Z" transform="translate(-16 -14.925)"/>
          <path id="Path_403" data-name="Path 403" class="cls-5" d="M86.369,121.682,32.941,110.823,16,59.132,52.488,18.3l52.994,11.294,16.941,51.691Z" transform="translate(-16 -15.259)"/>
          <path id="Path_404" data-name="Path 404" class="cls-5" d="M86.369,121.682,32.941,110.388,16,58.7,52.488,18.3l52.994,10.859,16.941,51.691Z" transform="translate(-16 -15.259)"/>
          <path id="Path_405" data-name="Path 405" class="cls-5" d="M86.369,121.582,32.941,110.723,16,59.032,52.488,18.2l52.994,11.294,16.941,51.691Z" transform="translate(-16 -15.594)"/>
          <path id="Path_406" data-name="Path 406" class="cls-5" d="M86.369,121.582,32.941,110.288,16,58.6,52.488,18.2l52.994,10.859,16.941,51.691Z" transform="translate(-16 -15.594)"/>
          <path id="Path_407" data-name="Path 407" class="cls-5" d="M86.369,121.482,32.941,110.623,16,58.932,52.488,18.1l52.994,11.294,16.941,51.691Z" transform="translate(-16 -15.928)"/>
          <path id="Path_408" data-name="Path 408" class="cls-5" d="M86.369,121.482,32.941,110.188,16,58.5,52.488,18.1l52.994,10.859,16.941,51.691Z" transform="translate(-16 -15.928)"/>
          <path id="Path_409" data-name="Path 409" class="cls-5" d="M86.369,121.382,32.941,110.523,16,58.832,52.488,18l52.994,11.294,16.941,51.691Z" transform="translate(-16 -16.262)"/>
          <path id="Path_410" data-name="Path 410" class="cls-5" d="M86.369,121.382,32.941,110.088,16,58.4,52.488,18l52.994,10.859,16.941,51.691Z" transform="translate(-16 -16.262)"/>
          <path id="Path_411" data-name="Path 411" class="cls-5" d="M86.369,121.282,32.941,110.423,16,58.732,52.488,17.9l52.994,11.294,16.941,51.691Z" transform="translate(-16 -16.597)"/>
          <path id="Path_412" data-name="Path 412" class="cls-5" d="M86.369,121.282,32.941,109.988,16,58.3,52.488,17.9l52.994,10.859,16.941,51.691Z" transform="translate(-16 -16.597)"/>
          <path id="Path_413" data-name="Path 413" class="cls-5" d="M86.369,121.182,32.941,110.323,16,58.632,52.488,17.8l52.994,11.294,16.941,51.691Z" transform="translate(-16 -16.931)"/>
          <path id="Path_414" data-name="Path 414" class="cls-5" d="M86.369,121.182,32.941,109.888,16,58.2,52.488,17.8l52.994,10.859,16.941,51.691Z" transform="translate(-16 -16.931)"/>
          <path id="Path_415" data-name="Path 415" class="cls-5" d="M86.369,121.082,32.941,110.223,16,58.532,52.488,17.7l52.994,11.294,16.941,51.691Z" transform="translate(-16 -17.266)"/>
          <path id="Path_416" data-name="Path 416" class="cls-5" d="M86.369,121.082,32.941,109.788,16,58.1,52.488,17.7l52.994,10.859,16.941,51.691Z" transform="translate(-16 -17.266)"/>
          <path id="Path_417" data-name="Path 417" class="cls-5" d="M86.369,120.982,32.941,110.123,16,58.432,52.488,17.6l52.994,11.294,16.941,51.691Z" transform="translate(-16 -17.6)"/>
          <path id="Path_418" data-name="Path 418" class="cls-5" d="M86.369,120.982,32.941,109.688,16,58,52.488,17.6l52.994,10.859,16.941,51.691Z" transform="translate(-16 -17.6)"/>
        </g>
        <path id="Path_419" data-name="Path 419" class="cls-6" d="M86.369,120.982,32.941,109.688,16,58,52.488,17.6l52.994,10.859,16.941,51.691Z" transform="translate(-16 -17.6)"/>
      </g>
      <rect id="Rectangle_747" data-name="Rectangle 747" class="cls-4" width="55.166" height="14.335" transform="translate(17.81 12.163)"/>
      <path id="Path_420" data-name="Path 420" class="cls-7" d="M220.27,38.156H64.328A11.679,11.679,0,0,1,52.6,26.428h0A11.679,11.679,0,0,1,64.328,14.7H220.27A11.679,11.679,0,0,1,232,26.428h0A11.679,11.679,0,0,1,220.27,38.156Z" transform="translate(147.214 49.154)"/>
      <path id="Path_421" data-name="Path 421" class="cls-7" d="M95.269,45.756H64.428A11.679,11.679,0,0,1,52.7,34.028h0A11.679,11.679,0,0,1,64.428,22.3H95.269A11.679,11.679,0,0,1,107,34.028h0A11.964,11.964,0,0,1,95.269,45.756Z" transform="translate(147.549 74.567)"/>
      <path id="Path_422" data-name="Path 422" class="cls-3" d="M186.054,47.894H58.347A5.75,5.75,0,0,1,52.7,42.247h0A5.75,5.75,0,0,1,58.347,36.6H186.489a5.75,5.75,0,0,1,5.647,5.647h0A5.853,5.853,0,0,1,186.054,47.894Z" transform="translate(147.549 122.383)"/>
      <path id="Path_423" data-name="Path 423" class="cls-3" d="M200.823,54.294H58.347A5.75,5.75,0,0,1,52.7,48.647h0A5.75,5.75,0,0,1,58.347,43H200.823a5.75,5.75,0,0,1,5.647,5.647h0A5.75,5.75,0,0,1,200.823,54.294Z" transform="translate(147.549 143.783)"/>
      <path id="Path_424" data-name="Path 424" class="cls-3" d="M143.051,60.594h-84.7A5.75,5.75,0,0,1,52.7,54.947h0A5.75,5.75,0,0,1,58.347,49.3h84.7a5.75,5.75,0,0,1,5.647,5.647h0C149.132,57.988,146.526,60.594,143.051,60.594Z" transform="translate(147.549 164.849)"/>
    </g>
    <g id="Group_64" data-name="Group 64" transform="translate(0 219.796)">
      <g id="Group_63" data-name="Group 63">
        <path id="Path_425" data-name="Path 425" class="cls-8" d="M130.748,169.62a72.838,72.838,0,0,0,16.072-45.61A73.41,73.41,0,1,0,0,124.01a72.838,72.838,0,0,0,16.072,45.61,92.258,92.258,0,0,1,114.676,0Z" transform="translate(0 -50.6)"/>
        <path id="Path_426" data-name="Path 426" class="cls-9" d="M61.038,121.082a73.35,73.35,0,0,0,57.338-27.8A91.01,91.01,0,0,0,61.038,73.3,91.01,91.01,0,0,0,3.7,93.281,72.7,72.7,0,0,0,61.038,121.082Z" transform="translate(12.372 25.304)"/>
      </g>
      <circle id="Ellipse_19" data-name="Ellipse 19" class="cls-10" cx="25.194" cy="25.194" r="25.194" transform="translate(48.216 35.185)"/>
    </g>
    <g id="Group_66" data-name="Group 66" transform="translate(316.228 219.796)">
      <g id="Group_65" data-name="Group 65">
        <path id="Path_427" data-name="Path 427" class="cls-11" d="M203.548,169.62a72.838,72.838,0,0,0,16.072-45.61,73.41,73.41,0,1,0-146.82,0,72.838,72.838,0,0,0,16.072,45.61,92.258,92.258,0,0,1,114.676,0Z" transform="translate(-72.8 -50.6)"/>
        <path id="Path_428" data-name="Path 428" class="cls-2" d="M133.838,121.082a73.35,73.35,0,0,0,57.338-27.8,92.258,92.258,0,0,0-114.676,0A73.35,73.35,0,0,0,133.838,121.082Z" transform="translate(-60.428 25.304)"/>
      </g>
      <circle id="Ellipse_20" data-name="Ellipse 20" class="cls-12" cx="25.194" cy="25.194" r="25.194" transform="translate(48.216 35.185)"/>
    </g>
    <g id="link_2_" transform="translate(162.458 274.528)">
      <path id="Path_429" data-name="Path 429" class="cls-4" d="M52.7,67.1Z" transform="translate(13.76 -50.159)"/>
      <g id="Group_68" data-name="Group 68" transform="translate(38.225 0.434)">
        <g id="Group_67" data-name="Group 67">
          <path id="Path_430" data-name="Path 430" class="cls-3" d="M114.094,64.3H97.154s9.122,6.081,10.859,16.941h5.647A10.754,10.754,0,0,1,124.52,92.1v11.294a11.128,11.128,0,0,1-10.859,11.294H75a11.5,11.5,0,0,1-11.294-11.294V92.535H47.2v10.859a32.628,32.628,0,0,0,2.172,11.294A28.137,28.137,0,0,0,75,131.629h38.66c15.2,0,27.366-12.6,27.366-28.235V92.1A26.73,26.73,0,0,0,114.094,64.3Z" transform="translate(-42.856 -59.956)"/>
          <path id="Path_431" data-name="Path 431" class="cls-3" d="M114.094,64.3H97.154s9.122,6.081,10.859,16.941h5.647A10.754,10.754,0,0,1,124.52,92.1v11.294a11.128,11.128,0,0,1-10.859,11.294H75a11.5,11.5,0,0,1-11.294-11.294V92.535H47.2v10.859a32.628,32.628,0,0,0,2.172,11.294A28.137,28.137,0,0,0,75,131.629h38.66c15.2,0,27.366-12.6,27.366-28.235V92.1A26.73,26.73,0,0,0,114.094,64.3Z" transform="translate(-42.856 -59.956)"/>
          <path id="Path_432" data-name="Path 432" class="cls-3" d="M114.094,64.2H97.154s9.122,6.081,10.859,16.941h5.647A10.754,10.754,0,0,1,124.52,92v11.294a11.128,11.128,0,0,1-10.859,11.294H75a11.5,11.5,0,0,1-11.294-11.294V92.435H47.2v10.859a32.628,32.628,0,0,0,2.172,11.294A28.137,28.137,0,0,0,75,131.529h38.66c15.2,0,27.366-12.6,27.366-28.235V92A26.987,26.987,0,0,0,114.094,64.2Z" transform="translate(-42.856 -60.291)"/>
          <path id="Path_433" data-name="Path 433" class="cls-3" d="M113.994,64.2H97.054s9.122,6.081,10.859,16.941h5.647A10.754,10.754,0,0,1,124.419,92v11.294a11.128,11.128,0,0,1-10.859,11.294H74.9a11.5,11.5,0,0,1-11.294-11.294V92.435H47.1v10.859a32.628,32.628,0,0,0,2.172,11.294A28.137,28.137,0,0,0,74.9,131.529h38.66c15.2,0,27.366-12.6,27.366-28.235V92C141.795,76.8,129.632,64.2,113.994,64.2Z" transform="translate(-43.191 -60.291)"/>
          <path id="Path_434" data-name="Path 434" class="cls-3" d="M113.994,64.2H97.054s9.122,6.081,10.859,16.941h5.647A10.754,10.754,0,0,1,124.419,92v11.294a11.128,11.128,0,0,1-10.859,11.294H74.9a11.5,11.5,0,0,1-11.294-11.294V92.435H47.1v10.859a32.628,32.628,0,0,0,2.172,11.294A28.137,28.137,0,0,0,74.9,131.529h38.66c15.2,0,27.366-12.6,27.366-28.235V92C141.795,76.363,129.2,64.2,113.994,64.2Z" transform="translate(-43.191 -60.291)"/>
          <path id="Path_435" data-name="Path 435" class="cls-3" d="M113.994,64.2H97.054s9.122,6.081,10.859,16.941h5.647A10.754,10.754,0,0,1,124.419,92v11.294a11.128,11.128,0,0,1-10.859,11.294H74.9a11.5,11.5,0,0,1-11.294-11.294V92.435H47.1v10.859a32.628,32.628,0,0,0,2.172,11.294A28.137,28.137,0,0,0,74.9,131.529h38.66c15.2,0,27.366-12.6,27.366-28.235V92A26.73,26.73,0,0,0,113.994,64.2Z" transform="translate(-43.191 -60.291)"/>
          <path id="Path_436" data-name="Path 436" class="cls-3" d="M113.994,64.2H97.054s9.122,6.081,10.859,16.941h5.647A10.754,10.754,0,0,1,124.419,92v11.294a11.128,11.128,0,0,1-10.859,11.294H74.9a11.5,11.5,0,0,1-11.294-11.294V92.435H47.1v10.859a32.628,32.628,0,0,0,2.172,11.294A28.137,28.137,0,0,0,74.9,131.529h38.66c15.2,0,27.366-12.6,27.366-28.235V92A26.73,26.73,0,0,0,113.994,64.2Z" transform="translate(-43.191 -60.291)"/>
          <path id="Path_437" data-name="Path 437" class="cls-3" d="M113.994,64.1H97.054s9.122,6.081,10.859,16.941h5.647A10.754,10.754,0,0,1,124.419,91.9v11.294a11.128,11.128,0,0,1-10.859,11.294H74.9a11.5,11.5,0,0,1-11.294-11.294V92.335H47.1v10.859a32.628,32.628,0,0,0,2.172,11.294A28.137,28.137,0,0,0,74.9,131.429h38.66c15.2,0,27.366-12.6,27.366-28.235V91.9A26.987,26.987,0,0,0,113.994,64.1Z" transform="translate(-43.191 -60.625)"/>
          <path id="Path_438" data-name="Path 438" class="cls-3" d="M113.894,64.1H96.954s9.122,6.081,10.859,16.941h5.647A10.754,10.754,0,0,1,124.319,91.9v11.294a11.128,11.128,0,0,1-10.859,11.294H74.8a11.5,11.5,0,0,1-11.294-11.294V92.335H47v10.859a32.628,32.628,0,0,0,2.172,11.294A28.137,28.137,0,0,0,74.8,131.429h38.66c15.2,0,27.366-12.6,27.366-28.235V91.9C141.695,76.7,129.532,64.1,113.894,64.1Z" transform="translate(-43.525 -60.625)"/>
          <path id="Path_439" data-name="Path 439" class="cls-3" d="M113.894,64.1H96.954s9.122,6.081,10.859,16.941h5.647A10.754,10.754,0,0,1,124.319,91.9v11.294a11.128,11.128,0,0,1-10.859,11.294H74.8a11.5,11.5,0,0,1-11.294-11.294V92.335H47v10.859a32.628,32.628,0,0,0,2.172,11.294A28.137,28.137,0,0,0,74.8,131.429h38.66c15.2,0,27.366-12.6,27.366-28.235V91.9C141.695,76.263,129.1,64.1,113.894,64.1Z" transform="translate(-43.525 -60.625)"/>
          <path id="Path_440" data-name="Path 440" class="cls-3" d="M113.894,64.1H96.954s9.122,6.081,10.859,16.941h5.647A10.754,10.754,0,0,1,124.319,91.9v11.294a11.128,11.128,0,0,1-10.859,11.294H74.8a11.5,11.5,0,0,1-11.294-11.294V92.335H47v10.859a32.628,32.628,0,0,0,2.172,11.294A28.137,28.137,0,0,0,74.8,131.429h38.66c15.2,0,27.366-12.6,27.366-28.235V91.9A26.73,26.73,0,0,0,113.894,64.1Z" transform="translate(-43.525 -60.625)"/>
          <path id="Path_441" data-name="Path 441" class="cls-3" d="M113.894,64.1H96.954s9.122,6.081,10.859,16.941h5.647A10.754,10.754,0,0,1,124.319,91.9v11.294a11.128,11.128,0,0,1-10.859,11.294H74.8a11.5,11.5,0,0,1-11.294-11.294V92.335H47v10.859a32.628,32.628,0,0,0,2.172,11.294A28.137,28.137,0,0,0,74.8,131.429h38.66c15.2,0,27.366-12.6,27.366-28.235V91.9A26.73,26.73,0,0,0,113.894,64.1Z" transform="translate(-43.525 -60.625)"/>
          <path id="Path_442" data-name="Path 442" class="cls-3" d="M113.894,64H96.954s9.122,6.081,10.859,16.941h5.647A10.754,10.754,0,0,1,124.319,91.8v11.294a11.128,11.128,0,0,1-10.859,11.294H74.8a11.5,11.5,0,0,1-11.294-11.294V92.235H47v10.859a32.628,32.628,0,0,0,2.172,11.294A28.137,28.137,0,0,0,74.8,131.329h38.66c15.2,0,27.366-12.6,27.366-28.235V91.8A26.987,26.987,0,0,0,113.894,64Z" transform="translate(-43.525 -60.959)"/>
          <path id="Path_443" data-name="Path 443" class="cls-3" d="M113.46,64H96.519s9.122,6.081,10.859,16.941h5.647A10.754,10.754,0,0,1,123.885,91.8v11.294a11.128,11.128,0,0,1-10.86,11.294H74.366a11.5,11.5,0,0,1-11.294-11.294V92.235H47v10.859a32.628,32.628,0,0,0,2.172,11.294A28.137,28.137,0,0,0,74.8,131.329h38.66c15.2,0,27.366-12.6,27.366-28.235V91.8A27.079,27.079,0,0,0,113.46,64Z" transform="translate(-43.525 -60.959)"/>
          <path id="Path_444" data-name="Path 444" class="cls-3" d="M113.46,64H96.519s9.122,6.081,10.859,16.941h5.647A10.754,10.754,0,0,1,123.885,91.8v11.294a11.128,11.128,0,0,1-10.86,11.294H74.366a11.5,11.5,0,0,1-11.294-11.294V92.235H47v10.859a32.628,32.628,0,0,0,2.172,11.294A28.137,28.137,0,0,0,74.8,131.329h38.66c15.2,0,27.366-12.6,27.366-28.235V91.8A27.084,27.084,0,0,0,113.46,64Z" transform="translate(-43.525 -60.959)"/>
          <path id="Path_445" data-name="Path 445" class="cls-3" d="M113.46,64H96.519s9.122,6.081,10.859,16.941h5.647A10.754,10.754,0,0,1,123.885,91.8v11.294a11.128,11.128,0,0,1-10.86,11.294H74.366a11.5,11.5,0,0,1-11.294-11.294V92.235H47v10.859a32.628,32.628,0,0,0,2.172,11.294A28.137,28.137,0,0,0,74.8,131.329h38.66c15.2,0,27.366-12.6,27.366-28.235V91.8C140.826,76.163,128.663,64,113.46,64Z" transform="translate(-43.525 -60.959)"/>
          <path id="Path_446" data-name="Path 446" class="cls-3" d="M113.794,64H96.854s9.122,6.081,10.859,16.941h5.647A10.754,10.754,0,0,1,124.219,91.8v11.294a11.128,11.128,0,0,1-10.859,11.294H74.7a11.5,11.5,0,0,1-11.294-11.294V92.235H46.9v10.859a32.628,32.628,0,0,0,2.172,11.294A28.137,28.137,0,0,0,74.7,131.329h38.66c15.2,0,27.366-12.6,27.366-28.235V91.8A26.73,26.73,0,0,0,113.794,64Z" transform="translate(-43.859 -60.959)"/>
          <path id="Path_447" data-name="Path 447" class="cls-3" d="M113.794,63.9H96.854s9.122,6.081,10.859,16.941h5.647A10.754,10.754,0,0,1,124.219,91.7v11.294a11.128,11.128,0,0,1-10.859,11.294H74.7a11.5,11.5,0,0,1-11.294-11.294V92.135H46.9v10.86a32.629,32.629,0,0,0,2.172,11.294A28.137,28.137,0,0,0,74.7,131.229h38.66c15.2,0,27.366-12.6,27.366-28.235V91.7A26.987,26.987,0,0,0,113.794,63.9Z" transform="translate(-43.859 -61.294)"/>
          <path id="Path_448" data-name="Path 448" class="cls-3" d="M113.694,63.9H96.754s9.122,6.081,10.859,16.941h5.647A10.754,10.754,0,0,1,124.119,91.7v11.294a11.128,11.128,0,0,1-10.859,11.294H74.6a11.5,11.5,0,0,1-11.294-11.294V92.135H46.8v10.86a32.628,32.628,0,0,0,2.172,11.294A28.137,28.137,0,0,0,74.6,131.229h38.66c15.2,0,27.366-12.6,27.366-28.235V91.7C141.495,76.5,129.332,63.9,113.694,63.9Z" transform="translate(-44.194 -61.294)"/>
          <path id="Path_449" data-name="Path 449" class="cls-3" d="M113.694,63.9H96.754s9.122,6.081,10.859,16.941h5.647A10.754,10.754,0,0,1,124.119,91.7v11.294a11.128,11.128,0,0,1-10.859,11.294H74.6a11.5,11.5,0,0,1-11.294-11.294V92.135H46.8v10.859a32.629,32.629,0,0,0,2.172,11.294A28.137,28.137,0,0,0,74.6,131.229h38.66c15.2,0,27.366-12.6,27.366-28.235V91.7C141.495,76.063,128.9,63.9,113.694,63.9Z" transform="translate(-44.194 -61.294)"/>
          <path id="Path_450" data-name="Path 450" class="cls-3" d="M113.694,63.9H96.754s9.122,6.081,10.859,16.941h5.647A10.754,10.754,0,0,1,124.119,91.7v11.294a11.128,11.128,0,0,1-10.859,11.294H74.6a11.5,11.5,0,0,1-11.294-11.294V92.135H46.8v10.859a32.629,32.629,0,0,0,2.172,11.294A28.137,28.137,0,0,0,74.6,131.229h38.66c15.2,0,27.366-12.6,27.366-28.235V91.7A26.73,26.73,0,0,0,113.694,63.9Z" transform="translate(-44.194 -61.294)"/>
          <path id="Path_451" data-name="Path 451" class="cls-3" d="M113.694,63.9H96.754s9.122,6.081,10.859,16.941h5.647A10.754,10.754,0,0,1,124.119,91.7v11.294a11.128,11.128,0,0,1-10.859,11.294H74.6a11.5,11.5,0,0,1-11.294-11.294V92.135H46.8v10.859a32.629,32.629,0,0,0,2.172,11.294A28.137,28.137,0,0,0,74.6,131.229h38.66c15.2,0,27.366-12.6,27.366-28.235V91.7A26.73,26.73,0,0,0,113.694,63.9Z" transform="translate(-44.194 -61.294)"/>
          <path id="Path_452" data-name="Path 452" class="cls-3" d="M113.694,63.8H96.754s9.122,6.081,10.859,16.941h5.647A10.754,10.754,0,0,1,124.119,91.6v11.294a11.128,11.128,0,0,1-10.859,11.294H74.6a11.5,11.5,0,0,1-11.294-11.294V92.035H46.8v10.859a32.628,32.628,0,0,0,2.172,11.294A28.137,28.137,0,0,0,74.6,131.129h38.66c15.2,0,27.366-12.6,27.366-28.235V91.6A26.987,26.987,0,0,0,113.694,63.8Z" transform="translate(-44.194 -61.628)"/>
          <path id="Path_453" data-name="Path 453" class="cls-3" d="M113.594,63.8H96.654s9.122,6.081,10.859,16.941h5.647A10.754,10.754,0,0,1,124.02,91.6v11.294a11.128,11.128,0,0,1-10.859,11.294H74.5a11.5,11.5,0,0,1-11.294-11.294V92.035H46.7v10.859a32.628,32.628,0,0,0,2.172,11.294A28.137,28.137,0,0,0,74.5,131.129h38.66c15.2,0,27.366-12.6,27.366-28.235V91.6C141.395,76.4,129.232,63.8,113.594,63.8Z" transform="translate(-44.528 -61.628)"/>
          <path id="Path_454" data-name="Path 454" class="cls-3" d="M113.594,63.8H96.654s9.122,6.081,10.859,16.941h5.647A10.754,10.754,0,0,1,124.02,91.6v11.294a11.128,11.128,0,0,1-10.859,11.294H74.5a11.5,11.5,0,0,1-11.294-11.294V92.035H46.7v10.859a32.628,32.628,0,0,0,2.172,11.294A28.137,28.137,0,0,0,74.5,131.129h38.66c15.2,0,27.366-12.6,27.366-28.235V91.6C141.395,75.963,128.8,63.8,113.594,63.8Z" transform="translate(-44.528 -61.628)"/>
          <path id="Path_455" data-name="Path 455" class="cls-3" d="M113.594,63.8H96.654s9.122,6.081,10.859,16.941h5.647A10.754,10.754,0,0,1,124.02,91.6v11.294a11.128,11.128,0,0,1-10.859,11.294H74.5a11.5,11.5,0,0,1-11.294-11.294V92.035H46.7v10.859a32.628,32.628,0,0,0,2.172,11.294A28.137,28.137,0,0,0,74.5,131.129h38.66c15.2,0,27.366-12.6,27.366-28.235V91.6A26.73,26.73,0,0,0,113.594,63.8Z" transform="translate(-44.528 -61.628)"/>
          <path id="Path_456" data-name="Path 456" class="cls-3" d="M113.594,63.8H96.654s9.122,6.081,10.859,16.941h5.647A10.754,10.754,0,0,1,124.02,91.6v11.294a11.128,11.128,0,0,1-10.859,11.294H74.5a11.5,11.5,0,0,1-11.294-11.294V92.035H46.7v10.859a32.628,32.628,0,0,0,2.172,11.294A28.137,28.137,0,0,0,74.5,131.129h38.66c15.2,0,27.366-12.6,27.366-28.235V91.6A26.73,26.73,0,0,0,113.594,63.8Z" transform="translate(-44.528 -61.628)"/>
          <path id="Path_457" data-name="Path 457" class="cls-3" d="M113.594,63.7H96.654s9.122,6.081,10.859,16.941h5.647A10.754,10.754,0,0,1,124.02,91.5v11.294a11.128,11.128,0,0,1-10.859,11.294H74.5a11.5,11.5,0,0,1-11.294-11.294V91.935H46.7v10.859a32.628,32.628,0,0,0,2.172,11.294A28.137,28.137,0,0,0,74.5,131.029h38.66c15.2,0,27.366-12.6,27.366-28.235V91.5A26.987,26.987,0,0,0,113.594,63.7Z" transform="translate(-44.528 -61.962)"/>
          <path id="Path_458" data-name="Path 458" class="cls-3" d="M113.16,63.7H96.219s9.122,6.081,10.859,16.941h6.081A10.754,10.754,0,0,1,124.02,91.5v11.294a11.128,11.128,0,0,1-10.859,11.294H74.5a11.5,11.5,0,0,1-11.294-11.294V91.935H46.7v10.859a32.628,32.628,0,0,0,2.172,11.294A28.137,28.137,0,0,0,74.5,131.029h38.66c15.2,0,27.366-12.6,27.366-28.235V91.5A27.079,27.079,0,0,0,113.16,63.7Z" transform="translate(-44.528 -61.962)"/>
          <path id="Path_459" data-name="Path 459" class="cls-3" d="M113.16,63.7H96.219s9.122,6.081,10.859,16.941h6.081A10.754,10.754,0,0,1,124.02,91.5v11.294a11.128,11.128,0,0,1-10.859,11.294H74.5a11.5,11.5,0,0,1-11.294-11.294V91.935H46.7v10.859a32.628,32.628,0,0,0,2.172,11.294A28.137,28.137,0,0,0,74.5,131.029h38.66c15.2,0,27.366-12.6,27.366-28.235V91.5A27.084,27.084,0,0,0,113.16,63.7Z" transform="translate(-44.528 -61.962)"/>
          <path id="Path_460" data-name="Path 460" class="cls-3" d="M113.16,63.7H96.219s9.122,6.081,10.859,16.941h6.081A10.754,10.754,0,0,1,124.02,91.5v11.294a11.128,11.128,0,0,1-10.859,11.294H74.5a11.5,11.5,0,0,1-11.294-11.294V91.935H46.7v10.859a32.628,32.628,0,0,0,2.172,11.294A28.137,28.137,0,0,0,74.5,131.029h38.66c15.2,0,27.366-12.6,27.366-28.235V91.5C140.526,75.863,128.363,63.7,113.16,63.7Z" transform="translate(-44.528 -61.962)"/>
          <path id="Path_461" data-name="Path 461" class="cls-3" d="M113.494,63.7H96.554s9.122,6.081,10.859,16.941h5.647A10.754,10.754,0,0,1,123.92,91.5v11.294a11.128,11.128,0,0,1-10.859,11.294H74.4a11.5,11.5,0,0,1-11.294-11.294V91.935H46.6v10.859a32.629,32.629,0,0,0,2.172,11.294A28.137,28.137,0,0,0,74.4,131.029h39.094c15.2,0,27.366-12.6,27.366-28.235V91.5C140.86,75.863,128.7,63.7,113.494,63.7Z" transform="translate(-44.863 -61.962)"/>
          <path id="Path_462" data-name="Path 462" class="cls-3" d="M113.494,63.6H96.554s9.122,6.081,10.859,16.941h5.647A10.754,10.754,0,0,1,123.919,91.4v11.294a11.128,11.128,0,0,1-10.859,11.294H74.4a11.5,11.5,0,0,1-11.294-11.294V91.835H46.6v10.859a32.628,32.628,0,0,0,2.172,11.294A28.137,28.137,0,0,0,74.4,130.929h39.094c15.2,0,27.366-12.6,27.366-28.235V91.4C140.86,76.2,128.7,63.6,113.494,63.6Z" transform="translate(-44.862 -62.297)"/>
          <path id="Path_463" data-name="Path 463" class="cls-3" d="M113.06,63.6H96.119s9.122,6.081,10.859,16.941h5.647A10.754,10.754,0,0,1,123.485,91.4v11.294a11.128,11.128,0,0,1-10.859,11.294H74.4a11.5,11.5,0,0,1-11.294-11.294V91.835H46.6v10.859a32.628,32.628,0,0,0,2.172,11.294A28.137,28.137,0,0,0,74.4,130.929h38.66c15.2,0,27.366-12.6,27.366-28.235V91.4A27.079,27.079,0,0,0,113.06,63.6Z" transform="translate(-44.862 -62.297)"/>
          <path id="Path_464" data-name="Path 464" class="cls-3" d="M113.06,63.6H96.119s9.122,6.081,10.859,16.941h5.647A10.754,10.754,0,0,1,123.485,91.4v11.294a11.128,11.128,0,0,1-10.859,11.294H74.4a11.5,11.5,0,0,1-11.294-11.294V91.835H46.6v10.859a32.628,32.628,0,0,0,2.172,11.294A28.137,28.137,0,0,0,74.4,130.929h38.66c15.2,0,27.366-12.6,27.366-28.235V91.4A27.084,27.084,0,0,0,113.06,63.6Z" transform="translate(-44.862 -62.297)"/>
          <path id="Path_465" data-name="Path 465" class="cls-3" d="M113.06,63.6H96.119s9.122,6.081,10.859,16.941h5.647A10.754,10.754,0,0,1,123.485,91.4v11.294a11.128,11.128,0,0,1-10.859,11.294H74.4a11.5,11.5,0,0,1-11.294-11.294V91.4H46.6V102.26a32.628,32.628,0,0,0,2.172,11.294A28.137,28.137,0,0,0,74.4,130.494h38.66c15.2,0,27.366-12.6,27.366-28.235V91.4C140.426,75.763,128.263,63.6,113.06,63.6Z" transform="translate(-44.862 -62.297)"/>
          <path id="Path_466" data-name="Path 466" class="cls-3" d="M113.06,63.6H96.119s9.122,6.081,10.859,16.941h5.647A10.754,10.754,0,0,1,123.485,91.4v11.294a11.128,11.128,0,0,1-10.859,11.294H74.4a11.5,11.5,0,0,1-11.294-11.294V91.4H46.6V102.26a32.628,32.628,0,0,0,2.172,11.294A28.137,28.137,0,0,0,74.4,130.494h38.66c15.2,0,27.366-12.6,27.366-28.235V91.4C140.426,75.763,128.263,63.6,113.06,63.6Z" transform="translate(-44.862 -62.297)"/>
          <path id="Path_467" data-name="Path 467" class="cls-3" d="M113.394,63.5H96.454s9.122,6.081,10.859,16.941h5.647A10.754,10.754,0,0,1,123.82,91.3v11.294a11.128,11.128,0,0,1-10.859,11.294H74.3a11.5,11.5,0,0,1-11.294-11.294V91.735H46.5v10.859a32.628,32.628,0,0,0,2.172,11.294A28.137,28.137,0,0,0,74.3,130.829h38.66c15.2,0,27.366-12.6,27.366-28.235V91.735A27.1,27.1,0,0,0,113.394,63.5Z" transform="translate(-45.197 -62.631)"/>
          <path id="Path_468" data-name="Path 468" class="cls-3" d="M112.96,63.5H96.454s9.122,6.081,10.859,16.941h5.647A10.754,10.754,0,0,1,123.82,91.3v11.294a11.128,11.128,0,0,1-10.859,11.294H74.3a11.5,11.5,0,0,1-11.294-11.294V91.735H46.5v10.859a32.628,32.628,0,0,0,2.172,11.294A28.137,28.137,0,0,0,74.3,130.829h38.66c15.2,0,27.366-12.6,27.366-28.235V91.3A27.079,27.079,0,0,0,112.96,63.5Z" transform="translate(-45.197 -62.631)"/>
          <path id="Path_469" data-name="Path 469" class="cls-3" d="M112.96,63.5H96.454s9.122,6.081,10.859,16.941h5.647A10.754,10.754,0,0,1,123.82,91.3v11.294a11.128,11.128,0,0,1-10.859,11.294H74.3a11.5,11.5,0,0,1-11.294-11.294V91.735H46.5v10.859a32.628,32.628,0,0,0,2.172,11.294A28.137,28.137,0,0,0,74.3,130.829h38.66c15.2,0,27.366-12.6,27.366-28.235V91.3A27.084,27.084,0,0,0,112.96,63.5Z" transform="translate(-45.197 -62.631)"/>
          <path id="Path_470" data-name="Path 470" class="cls-3" d="M113.294,63.5H96.354s9.122,6.081,10.859,16.941h5.647A10.754,10.754,0,0,1,123.719,91.3v11.294a11.128,11.128,0,0,1-10.859,11.294H74.2a11.5,11.5,0,0,1-11.294-11.294V91.735H46.4v10.859a32.629,32.629,0,0,0,2.172,11.294A28.137,28.137,0,0,0,74.2,130.829h38.66c15.2,0,27.366-12.6,27.366-28.235V91.3A26.73,26.73,0,0,0,113.294,63.5Z" transform="translate(-45.531 -62.631)"/>
          <path id="Path_471" data-name="Path 471" class="cls-3" d="M113.294,63.5H96.354s9.122,6.081,10.859,16.941h5.647A10.754,10.754,0,0,1,123.719,91.3v11.294a11.128,11.128,0,0,1-10.859,11.294H74.2a11.5,11.5,0,0,1-11.294-11.294V91.735H46.4v10.859a32.629,32.629,0,0,0,2.172,11.294A28.137,28.137,0,0,0,74.2,130.829h38.66c15.2,0,27.366-12.6,27.366-28.235V91.3A26.73,26.73,0,0,0,113.294,63.5Z" transform="translate(-45.531 -62.631)"/>
          <path id="Path_472" data-name="Path 472" class="cls-3" d="M113.294,63.4H96.354s9.122,6.081,10.859,16.941h5.647A10.754,10.754,0,0,1,123.719,91.2v11.294a11.128,11.128,0,0,1-10.859,11.294H74.2a11.5,11.5,0,0,1-11.294-11.294V91.635H46.4v10.859a32.629,32.629,0,0,0,2.172,11.294A28.137,28.137,0,0,0,74.2,130.729h38.66c15.2,0,27.366-12.6,27.366-28.235V91.2A26.987,26.987,0,0,0,113.294,63.4Z" transform="translate(-45.531 -62.966)"/>
          <path id="Path_473" data-name="Path 473" class="cls-3" d="M113.194,63.4H96.254s9.122,6.081,10.859,16.941h5.647A10.754,10.754,0,0,1,123.62,91.2v11.294a11.128,11.128,0,0,1-10.859,11.294H74.1a11.5,11.5,0,0,1-11.294-11.294V91.635H46.3v10.859a32.629,32.629,0,0,0,2.172,11.294A28.137,28.137,0,0,0,74.1,130.729h38.66c15.2,0,27.366-12.6,27.366-28.235V91.2C140.995,76,128.832,63.4,113.194,63.4Z" transform="translate(-45.866 -62.966)"/>
          <path id="Path_474" data-name="Path 474" class="cls-3" d="M113.194,63.4H96.254s9.122,6.081,10.859,16.941h5.647A10.754,10.754,0,0,1,123.62,91.2v11.294a11.128,11.128,0,0,1-10.859,11.294H74.1a11.5,11.5,0,0,1-11.294-11.294V91.635H46.3v10.859a32.629,32.629,0,0,0,2.172,11.294A28.137,28.137,0,0,0,74.1,130.729h38.66c15.2,0,27.366-12.6,27.366-28.235V91.2C140.995,75.563,128.4,63.4,113.194,63.4Z" transform="translate(-45.866 -62.966)"/>
          <path id="Path_475" data-name="Path 475" class="cls-3" d="M113.194,63.4H96.254s9.122,6.081,10.859,16.941h5.647A10.754,10.754,0,0,1,123.62,91.2v11.294a11.128,11.128,0,0,1-10.859,11.294H74.1a11.5,11.5,0,0,1-11.294-11.294V91.635H46.3v10.859a32.629,32.629,0,0,0,2.172,11.294A28.137,28.137,0,0,0,74.1,130.729h38.66c15.2,0,27.366-12.6,27.366-28.235V91.2A26.73,26.73,0,0,0,113.194,63.4Z" transform="translate(-45.866 -62.966)"/>
          <path id="Path_476" data-name="Path 476" class="cls-3" d="M113.194,63.4H96.254s9.122,6.081,10.859,16.941h5.647A10.754,10.754,0,0,1,123.62,91.2v11.294a11.128,11.128,0,0,1-10.859,11.294H74.1a11.5,11.5,0,0,1-11.294-11.294V91.635H46.3v10.859a32.629,32.629,0,0,0,2.172,11.294A28.137,28.137,0,0,0,74.1,130.729h38.66c15.2,0,27.366-12.6,27.366-28.235V91.2A26.73,26.73,0,0,0,113.194,63.4Z" transform="translate(-45.866 -62.966)"/>
          <path id="Path_477" data-name="Path 477" class="cls-3" d="M113.194,63.3H96.254s9.122,6.081,10.859,16.941h5.647A10.754,10.754,0,0,1,123.62,91.1v11.294a11.128,11.128,0,0,1-10.859,11.294H74.1a11.5,11.5,0,0,1-11.294-11.294V91.535H46.3v10.859a32.629,32.629,0,0,0,2.172,11.294A28.137,28.137,0,0,0,74.1,130.629h38.66c15.2,0,27.366-12.6,27.366-28.235V91.1A26.987,26.987,0,0,0,113.194,63.3Z" transform="translate(-45.866 -63.3)"/>
          <path id="Path_478" data-name="Path 478" class="cls-3" d="M113.094,63.3H96.154s9.122,6.081,10.859,16.941h5.647A10.754,10.754,0,0,1,123.519,91.1v11.294a11.128,11.128,0,0,1-10.859,11.294H74a11.5,11.5,0,0,1-11.294-11.294V91.535H46.2v10.859a32.629,32.629,0,0,0,2.172,11.294A28.137,28.137,0,0,0,74,130.629h38.66c15.2,0,27.366-12.6,27.366-28.235V91.1C140.895,75.9,128.732,63.3,113.094,63.3Z" transform="translate(-46.2 -63.3)"/>
          <path id="Path_479" data-name="Path 479" class="cls-3" d="M113.094,63.3H96.154s9.122,6.081,10.859,16.941h5.647A10.754,10.754,0,0,1,123.519,91.1v11.294a11.128,11.128,0,0,1-10.859,11.294H74a11.5,11.5,0,0,1-11.294-11.294V91.535H46.2v10.859a32.629,32.629,0,0,0,2.172,11.294A28.137,28.137,0,0,0,74,130.629h38.66c15.2,0,27.366-12.6,27.366-28.235V91.1C140.895,75.463,128.3,63.3,113.094,63.3Z" transform="translate(-46.2 -63.3)"/>
          <path id="Path_480" data-name="Path 480" class="cls-3" d="M113.094,63.3H96.154s9.122,6.081,10.859,16.941h5.647A10.754,10.754,0,0,1,123.519,91.1v11.294a11.128,11.128,0,0,1-10.859,11.294H74a11.5,11.5,0,0,1-11.294-11.294V91.535H46.2v10.859a32.629,32.629,0,0,0,2.172,11.294A28.137,28.137,0,0,0,74,130.629h38.66c15.2,0,27.366-12.6,27.366-28.235V91.1A26.73,26.73,0,0,0,113.094,63.3Z" transform="translate(-46.2 -63.3)"/>
        </g>
        <path id="Path_481" data-name="Path 481" class="cls-4" d="M113.094,63.3H96.154s9.122,6.081,10.859,16.941h5.647A10.754,10.754,0,0,1,123.519,91.1v11.294a11.128,11.128,0,0,1-10.859,11.294H74a11.5,11.5,0,0,1-11.294-11.294V91.535H46.2v10.859a32.629,32.629,0,0,0,2.172,11.294A28.137,28.137,0,0,0,74,130.629h38.66c15.2,0,27.366-12.6,27.366-28.235V91.1A26.73,26.73,0,0,0,113.094,63.3Z" transform="translate(-46.2 -63.3)"/>
      </g>
      <g id="Group_70" data-name="Group 70">
        <g id="Group_69" data-name="Group 69">
          <path id="Path_482" data-name="Path 482" class="cls-3" d="M130.054,81.141A27.529,27.529,0,0,0,104.86,64.2H66.2A28,28,0,0,0,38.4,92v11.294a28.089,28.089,0,0,0,27.8,28.235H82.707s-9.122-6.081-11.294-16.941H66.2a11.5,11.5,0,0,1-11.294-11.294V92A11.128,11.128,0,0,1,66.2,81.141h38.66A10.754,10.754,0,0,1,115.72,92v11.294h16.506V92A32.224,32.224,0,0,0,130.054,81.141Z" transform="translate(-34.056 -59.856)"/>
          <path id="Path_483" data-name="Path 483" class="cls-3" d="M130.054,81.141A27.529,27.529,0,0,0,104.86,64.2H66.2A28,28,0,0,0,38.4,92v11.294a28.089,28.089,0,0,0,27.8,28.235H82.707s-9.122-6.081-11.294-16.941H66.2a11.5,11.5,0,0,1-11.294-11.294V92A11.128,11.128,0,0,1,66.2,81.141h38.66A10.754,10.754,0,0,1,115.72,92v11.294h16.506V92A32.224,32.224,0,0,0,130.054,81.141Z" transform="translate(-34.056 -59.856)"/>
          <path id="Path_484" data-name="Path 484" class="cls-3" d="M130.054,81.141A27.529,27.529,0,0,0,104.86,64.2H66.2A28,28,0,0,0,38.4,92v11.294a28.089,28.089,0,0,0,27.8,28.235H82.707s-9.122-6.081-11.294-16.941H66.2a11.5,11.5,0,0,1-11.294-11.294V92A11.128,11.128,0,0,1,66.2,81.141h38.66A10.754,10.754,0,0,1,115.72,92v11.294h16.506V92A32.224,32.224,0,0,0,130.054,81.141Z" transform="translate(-34.056 -59.856)"/>
          <path id="Path_485" data-name="Path 485" class="cls-3" d="M129.954,81.141A27.529,27.529,0,0,0,104.76,64.2H66.1A28,28,0,0,0,38.3,92v11.294a28.089,28.089,0,0,0,27.8,28.235H82.607s-9.122-6.081-11.294-16.941H66.1a11.5,11.5,0,0,1-11.294-11.294V92A11.128,11.128,0,0,1,66.1,81.141h38.66A10.754,10.754,0,0,1,115.619,92v11.294H132.56V92A23.549,23.549,0,0,0,129.954,81.141Z" transform="translate(-34.391 -59.856)"/>
          <path id="Path_486" data-name="Path 486" class="cls-3" d="M129.954,81.141A27.529,27.529,0,0,0,104.76,64.2H66.1A28,28,0,0,0,38.3,92v11.294a28.089,28.089,0,0,0,27.8,28.235H82.607s-9.122-6.081-11.294-16.941H66.1a11.5,11.5,0,0,1-11.294-11.294V92A11.128,11.128,0,0,1,66.1,81.141h38.66A10.754,10.754,0,0,1,115.619,92v11.294h16.506V92A28.457,28.457,0,0,0,129.954,81.141Z" transform="translate(-34.391 -59.856)"/>
          <path id="Path_487" data-name="Path 487" class="cls-3" d="M129.954,81.041A27.529,27.529,0,0,0,104.76,64.1H66.1A28,28,0,0,0,38.3,91.9v11.294a28.089,28.089,0,0,0,27.8,28.235H82.607s-9.122-6.081-11.294-16.941H66.1a11.5,11.5,0,0,1-11.294-11.294V91.9A11.128,11.128,0,0,1,66.1,81.041h38.66A10.754,10.754,0,0,1,115.619,91.9v11.294h16.506V91.9A32.225,32.225,0,0,0,129.954,81.041Z" transform="translate(-34.391 -60.191)"/>
          <path id="Path_488" data-name="Path 488" class="cls-3" d="M129.954,81.041A27.529,27.529,0,0,0,104.76,64.1H66.1A28,28,0,0,0,38.3,91.9v11.294a28.089,28.089,0,0,0,27.8,28.235H82.607s-9.122-6.081-11.294-16.941H66.1a11.5,11.5,0,0,1-11.294-11.294V91.9A11.128,11.128,0,0,1,66.1,81.041h38.66A10.754,10.754,0,0,1,115.619,91.9v11.294h16.506V91.9A32.225,32.225,0,0,0,129.954,81.041Z" transform="translate(-34.391 -60.191)"/>
          <path id="Path_489" data-name="Path 489" class="cls-3" d="M129.954,81.041A27.529,27.529,0,0,0,104.76,64.1H66.1A28,28,0,0,0,38.3,91.9v11.294a28.089,28.089,0,0,0,27.8,28.235H82.607s-9.122-6.081-11.294-16.941H66.1a11.5,11.5,0,0,1-11.294-11.294V91.9A11.128,11.128,0,0,1,66.1,81.041h38.66A10.754,10.754,0,0,1,115.619,91.9v11.294h16.506V91.9A32.225,32.225,0,0,0,129.954,81.041Z" transform="translate(-34.391 -60.191)"/>
          <path id="Path_490" data-name="Path 490" class="cls-3" d="M129.854,81.041A27.53,27.53,0,0,0,104.66,64.1H66A28,28,0,0,0,38.2,91.9v11.294A28.089,28.089,0,0,0,66,131.429H82.507s-9.122-6.081-11.294-16.941H66a11.5,11.5,0,0,1-11.294-11.294V91.9A11.128,11.128,0,0,1,66,81.041h38.66A10.754,10.754,0,0,1,115.52,91.9v11.294h16.506V91.9A18.873,18.873,0,0,0,129.854,81.041Z" transform="translate(-34.725 -60.191)"/>
          <path id="Path_491" data-name="Path 491" class="cls-3" d="M129.854,81.041A27.53,27.53,0,0,0,104.66,64.1H66A28,28,0,0,0,38.2,91.9v11.294A28.089,28.089,0,0,0,66,131.429H82.507s-9.122-6.081-11.294-16.941H66a11.5,11.5,0,0,1-11.294-11.294V91.9A11.128,11.128,0,0,1,66,81.041h38.66A10.754,10.754,0,0,1,115.52,91.9v11.294h16.506V91.9A28.456,28.456,0,0,0,129.854,81.041Z" transform="translate(-34.725 -60.191)"/>
          <path id="Path_492" data-name="Path 492" class="cls-3" d="M129.854,80.941A27.53,27.53,0,0,0,104.66,64H66A28,28,0,0,0,38.2,91.8v11.294A28.089,28.089,0,0,0,66,131.329H82.507s-9.122-6.081-11.294-16.941H66a11.5,11.5,0,0,1-11.294-11.294V91.8A11.128,11.128,0,0,1,66,80.941h38.66A10.754,10.754,0,0,1,115.52,91.8v11.294h16.506V91.8A32.223,32.223,0,0,0,129.854,80.941Z" transform="translate(-34.725 -60.525)"/>
          <path id="Path_493" data-name="Path 493" class="cls-3" d="M129.854,80.941A27.53,27.53,0,0,0,104.66,64H66A28,28,0,0,0,38.2,91.8v11.294A28.089,28.089,0,0,0,66,131.329H82.507s-9.122-6.081-11.294-16.941H66a11.5,11.5,0,0,1-11.294-11.294V91.8A11.128,11.128,0,0,1,66,80.941h38.66A10.754,10.754,0,0,1,115.52,91.8v11.294h16.506V91.8A32.223,32.223,0,0,0,129.854,80.941Z" transform="translate(-34.725 -60.525)"/>
          <path id="Path_494" data-name="Path 494" class="cls-3" d="M129.854,80.941A27.53,27.53,0,0,0,104.66,64H66A28,28,0,0,0,38.2,91.8v11.294A28.089,28.089,0,0,0,66,131.329H82.507s-9.122-6.081-11.294-16.941H66a11.5,11.5,0,0,1-11.294-11.294V91.8A11.128,11.128,0,0,1,66,80.941h38.66A10.754,10.754,0,0,1,115.52,91.8v11.294h16.506V91.8A32.223,32.223,0,0,0,129.854,80.941Z" transform="translate(-34.725 -60.525)"/>
          <path id="Path_495" data-name="Path 495" class="cls-3" d="M129.754,80.941A27.53,27.53,0,0,0,104.56,64H65.9A28,28,0,0,0,38.1,91.8v11.294a28.089,28.089,0,0,0,27.8,28.235H82.407s-9.122-6.081-11.294-16.941H65.9a11.5,11.5,0,0,1-11.294-11.294V91.8A11.128,11.128,0,0,1,65.9,80.941h38.66A10.754,10.754,0,0,1,115.42,91.8v11.294h16.506V91.8A18.873,18.873,0,0,0,129.754,80.941Z" transform="translate(-35.059 -60.525)"/>
          <path id="Path_496" data-name="Path 496" class="cls-3" d="M129.754,80.941A27.53,27.53,0,0,0,104.56,64H65.9A28,28,0,0,0,38.1,91.8v11.294a28.089,28.089,0,0,0,27.8,28.235H82.407s-9.122-6.081-11.294-16.941H65.9a11.5,11.5,0,0,1-11.294-11.294V91.8A11.128,11.128,0,0,1,65.9,80.941h38.66A10.754,10.754,0,0,1,115.42,91.8v11.294h16.506V91.8A28.456,28.456,0,0,0,129.754,80.941Z" transform="translate(-35.059 -60.525)"/>
          <path id="Path_497" data-name="Path 497" class="cls-3" d="M129.754,80.841A27.53,27.53,0,0,0,104.56,63.9H65.9A28,28,0,0,0,38.1,91.7v11.728a28.089,28.089,0,0,0,27.8,28.235H82.407s-9.122-6.081-11.294-16.941H65.9a11.5,11.5,0,0,1-11.294-11.294V92.135A11.128,11.128,0,0,1,65.9,81.275h38.66A10.754,10.754,0,0,1,115.42,92.135v11.294h16.506V92.135A32.629,32.629,0,0,0,129.754,80.841Z" transform="translate(-35.059 -60.859)"/>
          <path id="Path_498" data-name="Path 498" class="cls-3" d="M129.754,80.841A27.53,27.53,0,0,0,104.56,63.9H65.9A28,28,0,0,0,38.1,91.7v11.728a28.089,28.089,0,0,0,27.8,28.235H82.407s-9.122-6.081-11.294-16.941H65.9a11.5,11.5,0,0,1-11.294-11.294V92.135A11.128,11.128,0,0,1,65.9,81.275h38.66A10.754,10.754,0,0,1,115.42,92.135v11.294h16.506V92.135A32.629,32.629,0,0,0,129.754,80.841Z" transform="translate(-35.059 -60.859)"/>
          <path id="Path_499" data-name="Path 499" class="cls-3" d="M129.754,80.841A27.53,27.53,0,0,0,104.56,63.9H65.9A28,28,0,0,0,38.1,91.7v11.294a28.089,28.089,0,0,0,27.8,28.235H82.407s-9.122-6.081-11.294-16.941H65.9a11.5,11.5,0,0,1-11.294-11.294V91.7A11.128,11.128,0,0,1,65.9,80.841h38.66A10.754,10.754,0,0,1,115.42,91.7v11.294h16.506V91.7A32.224,32.224,0,0,0,129.754,80.841Z" transform="translate(-35.059 -60.859)"/>
          <path id="Path_500" data-name="Path 500" class="cls-3" d="M129.654,80.841A27.529,27.529,0,0,0,104.46,63.9H65.8A28,28,0,0,0,38,91.7v11.294a28.089,28.089,0,0,0,27.8,28.235H82.307s-9.122-6.081-11.294-16.941H65.8a11.5,11.5,0,0,1-11.294-11.294V91.7A11.128,11.128,0,0,1,65.8,80.841h38.66A10.754,10.754,0,0,1,115.319,91.7v11.294h16.506V91.7A18.873,18.873,0,0,0,129.654,80.841Z" transform="translate(-35.394 -60.859)"/>
          <path id="Path_501" data-name="Path 501" class="cls-3" d="M129.654,80.841A27.529,27.529,0,0,0,104.46,63.9H65.8A28,28,0,0,0,38,91.7v11.294a28.089,28.089,0,0,0,27.8,28.235H82.307s-9.122-6.081-11.294-16.941H65.8a11.5,11.5,0,0,1-11.294-11.294V91.7A11.128,11.128,0,0,1,65.8,80.841h38.66A10.754,10.754,0,0,1,115.319,91.7v11.294h16.506V91.7A28.455,28.455,0,0,0,129.654,80.841Z" transform="translate(-35.394 -60.859)"/>
          <path id="Path_502" data-name="Path 502" class="cls-3" d="M129.654,80.741A27.529,27.529,0,0,0,104.46,63.8H65.8A28,28,0,0,0,38,91.6v11.294a28.089,28.089,0,0,0,27.8,28.235H82.307s-9.122-6.081-11.294-16.941H65.8a11.5,11.5,0,0,1-11.294-11.294V91.6A11.128,11.128,0,0,1,65.8,80.741h38.66A10.754,10.754,0,0,1,115.319,91.6v11.294h16.506V91.6A32.222,32.222,0,0,0,129.654,80.741Z" transform="translate(-35.394 -61.194)"/>
          <path id="Path_503" data-name="Path 503" class="cls-3" d="M129.654,80.741A27.529,27.529,0,0,0,104.46,63.8H65.8A28,28,0,0,0,38,91.6v11.294a28.089,28.089,0,0,0,27.8,28.235H82.307s-9.122-6.081-11.294-16.941H65.8a11.5,11.5,0,0,1-11.294-11.294V91.6A11.128,11.128,0,0,1,65.8,80.741h38.66A10.754,10.754,0,0,1,115.319,91.6v11.294h16.506V91.6A32.222,32.222,0,0,0,129.654,80.741Z" transform="translate(-35.394 -61.194)"/>
          <path id="Path_504" data-name="Path 504" class="cls-3" d="M129.654,80.741A27.529,27.529,0,0,0,104.46,63.8H65.8A28,28,0,0,0,38,91.6v11.294a28.089,28.089,0,0,0,27.8,28.235H82.307s-9.122-6.081-11.294-16.941H65.8a11.5,11.5,0,0,1-11.294-11.294V91.6A11.128,11.128,0,0,1,65.8,80.741h38.66A10.754,10.754,0,0,1,115.319,91.6v11.294h16.506V91.6A32.222,32.222,0,0,0,129.654,80.741Z" transform="translate(-35.394 -61.194)"/>
          <path id="Path_505" data-name="Path 505" class="cls-3" d="M129.554,80.741A27.529,27.529,0,0,0,104.36,63.8H65.7A28,28,0,0,0,37.9,91.6v11.294a28.089,28.089,0,0,0,27.8,28.235H82.207s-9.122-6.081-11.294-16.941H65.7a11.5,11.5,0,0,1-11.294-11.294V91.6A11.128,11.128,0,0,1,65.7,80.741h38.66A10.754,10.754,0,0,1,115.219,91.6v11.294h16.506V91.6A18.873,18.873,0,0,0,129.554,80.741Z" transform="translate(-35.728 -61.194)"/>
          <path id="Path_506" data-name="Path 506" class="cls-3" d="M129.554,80.741A27.529,27.529,0,0,0,104.36,63.8H65.7A28,28,0,0,0,37.9,91.6v11.294a28.089,28.089,0,0,0,27.8,28.235H82.207s-9.122-6.081-11.294-16.941H65.7a11.5,11.5,0,0,1-11.294-11.294V91.6A11.128,11.128,0,0,1,65.7,80.741h38.66A10.754,10.754,0,0,1,115.219,91.6v11.294h16.506V91.6A28.456,28.456,0,0,0,129.554,80.741Z" transform="translate(-35.728 -61.194)"/>
          <path id="Path_507" data-name="Path 507" class="cls-3" d="M129.554,80.641A27.529,27.529,0,0,0,104.36,63.7H65.7A28,28,0,0,0,37.9,91.5v11.294a28.089,28.089,0,0,0,27.8,28.235H81.772s-9.122-6.081-11.294-16.941H65.266a11.5,11.5,0,0,1-11.294-11.294V91.5A11.128,11.128,0,0,1,65.266,80.641h38.66A10.754,10.754,0,0,1,114.785,91.5v11.294h16.506V91.5A23.812,23.812,0,0,0,129.554,80.641Z" transform="translate(-35.728 -61.528)"/>
          <path id="Path_508" data-name="Path 508" class="cls-3" d="M129.554,80.641A27.529,27.529,0,0,0,104.36,63.7H65.7A28,28,0,0,0,37.9,91.5v11.294a28.089,28.089,0,0,0,27.8,28.235H81.772s-9.122-6.081-11.294-16.941H65.266a11.5,11.5,0,0,1-11.294-11.294V91.5A11.128,11.128,0,0,1,65.266,80.641h38.66A10.754,10.754,0,0,1,114.785,91.5v11.294h16.506V91.5A23.812,23.812,0,0,0,129.554,80.641Z" transform="translate(-35.728 -61.528)"/>
          <path id="Path_509" data-name="Path 509" class="cls-3" d="M129.554,80.641A27.529,27.529,0,0,0,104.36,63.7H65.7A28,28,0,0,0,37.9,91.5v11.294a28.089,28.089,0,0,0,27.8,28.235H81.772s-9.122-6.081-11.294-16.941H65.266a11.5,11.5,0,0,1-11.294-11.294V91.5A11.128,11.128,0,0,1,65.266,80.641h38.66A10.754,10.754,0,0,1,114.785,91.5v11.294h16.506V91.5A23.812,23.812,0,0,0,129.554,80.641Z" transform="translate(-35.728 -61.528)"/>
          <path id="Path_510" data-name="Path 510" class="cls-3" d="M129.454,80.641A27.529,27.529,0,0,0,104.26,63.7H65.6A28,28,0,0,0,37.8,91.5v11.294a28.089,28.089,0,0,0,27.8,28.235H82.107s-9.122-6.081-11.294-16.941H65.6a11.5,11.5,0,0,1-11.294-11.294V91.5A11.128,11.128,0,0,1,65.6,80.641h38.66A10.754,10.754,0,0,1,115.119,91.5v11.294h16.506V91.5A18.873,18.873,0,0,0,129.454,80.641Z" transform="translate(-36.062 -61.528)"/>
          <path id="Path_511" data-name="Path 511" class="cls-3" d="M129.454,80.641A27.529,27.529,0,0,0,104.26,63.7H65.6A28,28,0,0,0,37.8,91.5v11.294a28.089,28.089,0,0,0,27.8,28.235H82.107s-9.122-6.081-11.294-16.941H65.6a11.5,11.5,0,0,1-11.294-11.294V91.5A11.128,11.128,0,0,1,65.6,80.641h38.66A10.754,10.754,0,0,1,115.119,91.5v11.294h16.506V91.5A28.455,28.455,0,0,0,129.454,80.641Z" transform="translate(-36.062 -61.528)"/>
          <path id="Path_512" data-name="Path 512" class="cls-3" d="M129.454,80.541A27.529,27.529,0,0,0,104.26,63.6H65.6A28,28,0,0,0,37.8,91.4v11.294a28.089,28.089,0,0,0,27.8,28.235H82.107s-9.122-6.081-11.294-16.941H65.6a11.5,11.5,0,0,1-11.294-11.294V91.4A11.128,11.128,0,0,1,65.6,80.541h38.225a10.754,10.754,0,0,1,10.86,10.86v11.294h16.506V91.4A23.812,23.812,0,0,0,129.454,80.541Z" transform="translate(-36.062 -61.862)"/>
          <path id="Path_513" data-name="Path 513" class="cls-3" d="M129.454,80.541A27.529,27.529,0,0,0,104.26,63.6H65.6A28,28,0,0,0,37.8,91.4v11.294a28.089,28.089,0,0,0,27.8,28.235H82.107s-9.122-6.081-11.294-16.941H65.6a11.5,11.5,0,0,1-11.294-11.294V91.4A11.128,11.128,0,0,1,65.6,80.541h38.225a10.754,10.754,0,0,1,10.86,10.86v11.294h16.506V91.4A23.812,23.812,0,0,0,129.454,80.541Z" transform="translate(-36.062 -61.862)"/>
          <path id="Path_514" data-name="Path 514" class="cls-3" d="M129.454,80.541A27.529,27.529,0,0,0,104.26,63.6H65.6A28,28,0,0,0,37.8,91.4v11.294a28.089,28.089,0,0,0,27.8,28.235H82.107s-9.122-6.081-11.294-16.941H65.6a11.5,11.5,0,0,1-11.294-11.294V91.4A11.128,11.128,0,0,1,65.6,80.541h38.225a10.754,10.754,0,0,1,10.86,10.86v11.294h16.506V91.4A23.812,23.812,0,0,0,129.454,80.541Z" transform="translate(-36.062 -61.862)"/>
          <path id="Path_515" data-name="Path 515" class="cls-3" d="M129.354,80.541A27.529,27.529,0,0,0,104.16,63.6H65.5A28,28,0,0,0,37.7,91.4v11.294a28.089,28.089,0,0,0,27.8,28.235H82.007s-9.122-6.081-11.294-16.941H65.5a11.5,11.5,0,0,1-11.294-11.294V91.4A11.128,11.128,0,0,1,65.5,80.541h38.66A10.754,10.754,0,0,1,115.02,91.4v11.294h16.506V91.4A18.873,18.873,0,0,0,129.354,80.541Z" transform="translate(-36.397 -61.862)"/>
          <path id="Path_516" data-name="Path 516" class="cls-3" d="M129.354,80.541A27.529,27.529,0,0,0,104.16,63.6H65.5A28,28,0,0,0,37.7,91.4v11.294a28.089,28.089,0,0,0,27.8,28.235H82.007s-9.122-6.081-11.294-16.941H65.5a11.5,11.5,0,0,1-11.294-11.294V91.4A11.128,11.128,0,0,1,65.5,80.541h38.66A10.754,10.754,0,0,1,115.02,91.4v11.294h16.506V91.4A28.455,28.455,0,0,0,129.354,80.541Z" transform="translate(-36.397 -61.862)"/>
          <path id="Path_517" data-name="Path 517" class="cls-3" d="M129.354,80.441A27.529,27.529,0,0,0,104.16,63.5H65.5A28,28,0,0,0,37.7,91.3v11.294a28.089,28.089,0,0,0,27.8,28.235H82.007s-9.122-6.081-11.294-16.941H65.5a11.5,11.5,0,0,1-11.294-11.294V91.735A11.128,11.128,0,0,1,65.5,80.875h38.66A10.754,10.754,0,0,1,115.02,91.735v11.294h16.506V91.735A32.628,32.628,0,0,0,129.354,80.441Z" transform="translate(-36.397 -62.197)"/>
          <path id="Path_518" data-name="Path 518" class="cls-3" d="M129.688,80.441A27.529,27.529,0,0,0,104.494,63.5H65.4A28,28,0,0,0,37.6,91.3v11.294a28.089,28.089,0,0,0,27.8,28.235H81.907s-9.122-6.081-11.294-16.941H65.4a11.5,11.5,0,0,1-11.294-11.294V91.735A11.128,11.128,0,0,1,65.4,80.875h38.66A10.754,10.754,0,0,1,114.92,91.735v11.294h16.506V91.735A24.737,24.737,0,0,0,129.688,80.441Z" transform="translate(-36.731 -62.197)"/>
          <path id="Path_519" data-name="Path 519" class="cls-3" d="M129.688,80.441A27.529,27.529,0,0,0,104.494,63.5H65.4A28,28,0,0,0,37.6,91.3v11.294a28.089,28.089,0,0,0,27.8,28.235H81.907s-9.122-6.081-11.294-16.941H65.4a11.5,11.5,0,0,1-11.294-11.294V91.735A11.128,11.128,0,0,1,65.4,80.875h38.66A10.754,10.754,0,0,1,114.92,91.735v11.294h16.506V91.735A24.737,24.737,0,0,0,129.688,80.441Z" transform="translate(-36.731 -62.197)"/>
          <path id="Path_520" data-name="Path 520" class="cls-3" d="M129.254,80.441A27.529,27.529,0,0,0,104.06,63.5H65.4A28,28,0,0,0,37.6,91.3v11.294a28.089,28.089,0,0,0,27.8,28.235H81.907s-9.122-6.081-11.294-16.941H65.4a11.5,11.5,0,0,1-11.294-11.294V91.3A11.128,11.128,0,0,1,65.4,80.441h38.66A10.754,10.754,0,0,1,114.92,91.3v11.294h16.506V91.3A18.873,18.873,0,0,0,129.254,80.441Z" transform="translate(-36.731 -62.197)"/>
          <path id="Path_521" data-name="Path 521" class="cls-3" d="M129.254,80.441A27.529,27.529,0,0,0,104.06,63.5H65.4A28,28,0,0,0,37.6,91.3v11.294a28.089,28.089,0,0,0,27.8,28.235H81.907s-9.122-6.081-11.294-16.941H65.4a11.5,11.5,0,0,1-11.294-11.294V91.3A11.128,11.128,0,0,1,65.4,80.441h38.66A10.754,10.754,0,0,1,114.92,91.3v11.294h16.506V91.3A28.455,28.455,0,0,0,129.254,80.441Z" transform="translate(-36.731 -62.197)"/>
          <path id="Path_522" data-name="Path 522" class="cls-3" d="M129.254,80.341A27.529,27.529,0,0,0,104.06,63.4H65.4A28,28,0,0,0,37.6,91.2v11.294a28.089,28.089,0,0,0,27.8,28.235H81.907s-9.122-6.081-11.294-16.941H65.4a11.5,11.5,0,0,1-11.294-11.294V91.2A11.128,11.128,0,0,1,65.4,80.341h38.66A10.754,10.754,0,0,1,114.92,91.2v11.294h16.506V91.2A32.223,32.223,0,0,0,129.254,80.341Z" transform="translate(-36.731 -62.531)"/>
          <path id="Path_523" data-name="Path 523" class="cls-3" d="M129.254,80.341A27.529,27.529,0,0,0,104.06,63.4H65.4A28,28,0,0,0,37.6,91.2v11.294a28.089,28.089,0,0,0,27.8,28.235H81.907s-9.122-6.081-11.294-16.941H65.4a11.5,11.5,0,0,1-11.294-11.294V91.2A11.128,11.128,0,0,1,65.4,80.341h38.66A10.754,10.754,0,0,1,114.92,91.2v11.294h16.506V91.2A32.223,32.223,0,0,0,129.254,80.341Z" transform="translate(-36.731 -62.531)"/>
          <path id="Path_524" data-name="Path 524" class="cls-3" d="M129.254,80.341A27.529,27.529,0,0,0,104.06,63.4H65.4A28,28,0,0,0,37.6,91.2v11.294a28.089,28.089,0,0,0,27.8,28.235H81.907s-9.122-6.081-11.294-16.941H65.4a11.5,11.5,0,0,1-11.294-11.294V91.2A11.128,11.128,0,0,1,65.4,80.341h38.66A10.754,10.754,0,0,1,114.92,91.2v11.294h16.506V91.2A32.223,32.223,0,0,0,129.254,80.341Z" transform="translate(-36.731 -62.531)"/>
          <path id="Path_525" data-name="Path 525" class="cls-3" d="M129.154,80.341A27.529,27.529,0,0,0,103.96,63.4H65.3A28,28,0,0,0,37.5,91.2v11.294a28.089,28.089,0,0,0,27.8,28.235H81.807s-9.122-6.081-11.294-16.941H65.3a11.5,11.5,0,0,1-11.294-11.294V91.2A11.128,11.128,0,0,1,65.3,80.341h38.66A10.754,10.754,0,0,1,114.82,91.2v11.294h16.506V91.2A18.873,18.873,0,0,0,129.154,80.341Z" transform="translate(-37.066 -62.531)"/>
          <path id="Path_526" data-name="Path 526" class="cls-3" d="M129.154,80.341A27.529,27.529,0,0,0,103.96,63.4H65.3A28,28,0,0,0,37.5,91.2v11.294a28.089,28.089,0,0,0,27.8,28.235H81.807s-9.122-6.081-11.294-16.941H65.3a11.5,11.5,0,0,1-11.294-11.294V91.2A11.128,11.128,0,0,1,65.3,80.341h38.66A10.754,10.754,0,0,1,114.82,91.2v11.294h16.506V91.2A28.456,28.456,0,0,0,129.154,80.341Z" transform="translate(-37.066 -62.531)"/>
          <path id="Path_527" data-name="Path 527" class="cls-3" d="M129.154,80.241A27.529,27.529,0,0,0,103.96,63.3H65.3A28,28,0,0,0,37.5,91.1v11.294a28.089,28.089,0,0,0,27.8,28.235H81.807s-9.122-6.081-11.294-16.941H65.3a11.5,11.5,0,0,1-11.294-11.294V91.1A11.128,11.128,0,0,1,65.3,80.241h38.66A10.754,10.754,0,0,1,114.82,91.1v11.294h16.506V91.1A32.224,32.224,0,0,0,129.154,80.241Z" transform="translate(-37.066 -62.866)"/>
          <path id="Path_528" data-name="Path 528" class="cls-3" d="M129.154,80.241A27.529,27.529,0,0,0,103.96,63.3H65.3A28,28,0,0,0,37.5,91.1v11.294a28.089,28.089,0,0,0,27.8,28.235H81.807s-9.122-6.081-11.294-16.941H65.3a11.5,11.5,0,0,1-11.294-11.294V91.1A11.128,11.128,0,0,1,65.3,80.241h38.66A10.754,10.754,0,0,1,114.82,91.1v11.294h16.506V91.1A32.224,32.224,0,0,0,129.154,80.241Z" transform="translate(-37.066 -62.866)"/>
          <path id="Path_529" data-name="Path 529" class="cls-3" d="M129.154,80.241A27.529,27.529,0,0,0,103.96,63.3H65.3A28,28,0,0,0,37.5,91.1v11.294a28.089,28.089,0,0,0,27.8,28.235H81.807s-9.122-6.081-11.294-16.941H65.3a11.5,11.5,0,0,1-11.294-11.294V91.1A11.128,11.128,0,0,1,65.3,80.241h38.66A10.754,10.754,0,0,1,114.82,91.1v11.294h16.506V91.1A32.224,32.224,0,0,0,129.154,80.241Z" transform="translate(-37.066 -62.866)"/>
          <path id="Path_530" data-name="Path 530" class="cls-3" d="M129.054,80.241A27.529,27.529,0,0,0,103.86,63.3H65.2A28,28,0,0,0,37.4,91.1v11.294a28.089,28.089,0,0,0,27.8,28.235H81.707s-9.122-6.081-11.294-16.941H65.2a11.5,11.5,0,0,1-11.294-11.294V91.1A11.128,11.128,0,0,1,65.2,80.241h38.66A10.754,10.754,0,0,1,114.72,91.1v11.294h16.506V91.1A18.873,18.873,0,0,0,129.054,80.241Z" transform="translate(-37.4 -62.866)"/>
          <path id="Path_531" data-name="Path 531" class="cls-3" d="M129.054,80.241A27.529,27.529,0,0,0,103.86,63.3H65.2A28,28,0,0,0,37.4,91.1v11.294a28.089,28.089,0,0,0,27.8,28.235H81.707s-9.122-6.081-11.294-16.941H65.2a11.5,11.5,0,0,1-11.294-11.294V91.1A11.128,11.128,0,0,1,65.2,80.241h38.66A10.754,10.754,0,0,1,114.72,91.1v11.294h16.506V91.1A28.456,28.456,0,0,0,129.054,80.241Z" transform="translate(-37.4 -62.866)"/>
          <path id="Path_532" data-name="Path 532" class="cls-3" d="M129.054,80.141A27.529,27.529,0,0,0,103.86,63.2H65.2A28,28,0,0,0,37.4,91v11.294a28.089,28.089,0,0,0,27.8,28.235H81.707s-9.122-6.081-11.294-16.941H65.2a11.5,11.5,0,0,1-11.294-11.294V91A11.128,11.128,0,0,1,65.2,80.141h38.66A10.754,10.754,0,0,1,114.72,91v11.294h16.506V91A32.224,32.224,0,0,0,129.054,80.141Z" transform="translate(-37.4 -63.2)"/>
        </g>
        <path id="Path_533" data-name="Path 533" class="cls-4" d="M129.054,80.141A27.529,27.529,0,0,0,103.86,63.2H65.2A28,28,0,0,0,37.4,91v11.294a28.089,28.089,0,0,0,27.8,28.235H81.707s-9.122-6.081-11.294-16.941H65.2a11.5,11.5,0,0,1-11.294-11.294V91A11.128,11.128,0,0,1,65.2,80.141h38.66A10.754,10.754,0,0,1,114.72,91v11.294h16.506V91A32.224,32.224,0,0,0,129.054,80.141Z" transform="translate(-37.4 -63.2)"/>
      </g>
    </g>
  </g>
</svg>
