<svg xmlns="http://www.w3.org/2000/svg" viewBox="1468.53 1708.061 365.96 301.059"><defs><style>.a{fill:#939598;}.b{fill:#ffce00;}.c{fill:#bc8200;}.d{fill:#ffb600;}</style></defs><g transform="translate(1611.53 1763.563)"><g transform="translate(88.933 4.203)"><path class="a" d="M0,54.126,80.576,7.8l53.451,31.15L53.85,85.277Z" transform="translate(0 23.35)"/><path class="b" d="M0,54.126,80.576,7.8l53.451,31.15L53.85,85.277Z" transform="translate(0 23.35)"/><path class="c" d="M0,19.4V50.55L53.85,81.7V50.55Z" transform="translate(0 58.077)"/><path class="d" d="M13.5,93.077,93.677,46.351V15.6L13.5,61.926Z" transform="translate(40.35 46.701)"/><path class="c" d="M6.7,7.8l.4,31.15L33.426,54.126l.4-30.751Z" transform="translate(20.026 23.35)"/><path class="d" d="M13.8,23.375,40.525,7.8V38.95L13.4,54.126Z" transform="translate(40.051 23.35)"/><path class="b" d="M6.7,31.15,60.55,0,114,31.15,87.276,46.726,60.55,31.15,33.825,46.726Z" transform="translate(20.026)"/><path class="c" d="M20.2,7.8V38.95L46.926,54.126V23.375Z" transform="translate(60.376 23.35)"/><path class="d" d="M53.626,7.8V38.95L26.9,54.126V23.375Z" transform="translate(80.401 23.35)"/></g><g transform="translate(-143 48.6)"><path class="a" d="M0,54.126,80.576,7.8l53.451,31.15L53.85,85.277Z" transform="translate(0 23.35)"/><path class="b" d="M0,54.126,80.576,7.8l53.451,31.15L53.85,85.277Z" transform="translate(0 23.35)"/><path class="c" d="M0,19.4V50.55L53.85,81.7V50.55Z" transform="translate(0 58.077)"/><path class="d" d="M13.5,93.077,93.677,46.351V15.6L13.5,61.926Z" transform="translate(40.35 46.701)"/><path class="c" d="M6.7,7.8l.4,31.15L33.426,54.126l.4-30.751Z" transform="translate(20.026 23.35)"/><path class="d" d="M13.8,23.375,40.525,7.8V38.95L13.4,54.126Z" transform="translate(40.051 23.35)"/><path class="b" d="M6.7,31.15,60.55,0,114,31.15,87.276,46.726,60.55,31.15,33.825,46.726Z" transform="translate(20.026)"/><path class="c" d="M20.2,7.8V38.95L46.926,54.126V23.375Z" transform="translate(60.376 23.35)"/><path class="d" d="M53.626,7.8V38.95L26.9,54.126V23.375Z" transform="translate(80.401 23.35)"/></g><g transform="translate(-47 -55.502)"><path class="a" d="M135.945,51.944,54.467,7.1,0,37.137,81.478,81.981Z" transform="translate(0 22.937)"/><path class="b" d="M135.945,51.944,54.467,7.1,0,37.137,81.478,81.981Z" transform="translate(0 22.937)"/><path class="d" d="M72.867,17.7V47.737L18.4,77.774V47.737Z" transform="translate(63.078 57.181)"/><path class="d" d="M45.412,7.1V37.137L18.4,51.944V21.907Z" transform="translate(63.078 22.937)"/><path class="c" d="M39.655,21.907,12.643,7.1,12.2,37.137,39.655,51.944Z" transform="translate(41.824 22.937)"/><path class="b" d="M108.49,30.037,54.024,0,0,30.037,27.012,44.844,54.467,30.037,81.478,44.844Z"/><path class="d" d="M33.555,7.1l-.443,30.037L6.1,51.944V21.907Z" transform="translate(20.912 22.937)"/><path class="c" d="M27.012,51.944V21.907L0,7.1V67.174l81.478,44.844V81.981Z" transform="translate(0 22.937)"/></g><g transform="translate(4.285 110.602)"><path class="a" d="M135.945,51.944,54.467,7.1,0,37.137,81.478,81.981Z" transform="translate(0 22.937)"/><path class="b" d="M135.945,51.944,54.467,7.1,0,37.137,81.478,81.981Z" transform="translate(0 22.937)"/><path class="d" d="M72.867,17.7V47.737L18.4,77.774V47.737Z" transform="translate(63.078 57.181)"/><path class="d" d="M45.412,7.1V37.137L18.4,51.944V21.907Z" transform="translate(63.078 22.937)"/><path class="c" d="M39.655,21.907,12.643,7.1,12.2,37.137,39.655,51.944Z" transform="translate(41.824 22.937)"/><path class="b" d="M108.49,30.037,54.024,0,0,30.037,27.012,44.844,54.467,30.037,81.478,44.844Z"/><path class="d" d="M33.555,7.1l-.443,30.037L6.1,51.944V21.907Z" transform="translate(20.912 22.937)"/><path class="c" d="M27.012,51.944V21.907L0,7.1V67.174l81.478,44.844V81.981Z" transform="translate(0 22.937)"/></g></g></svg>